<svg width="60" height="60" viewBox="0 0 60 60" fill="none" xmlns="http://www.w3.org/2000/svg">
<path fill-rule="evenodd" clip-rule="evenodd" d="M42.5 18.75L35 18.75L35 13.75L42.5 13.75L42.5 18.75Z" fill="#F1F0EE"/>
<path d="M50.6904 4.375C52.0348 4.375 53.125 5.46761 53.125 6.81543V53.1846C53.125 54.5324 52.0348 55.625 50.6904 55.625H9.30957C7.96521 55.625 6.87503 54.5324 6.875 53.1846V6.81543C6.87502 5.46761 7.96521 4.375 9.30957 4.375H50.6904ZM15.625 43.125V46.875H20.6904V43.125H15.625ZM27.4668 43.125V46.875H32.5332V43.125H27.4668ZM39.3096 43.125V46.875H44.375V43.125H39.3096ZM15.625 36.875H20.6904V33.125H15.625V36.875ZM27.4668 36.875H32.5332V33.125H27.4668V36.875ZM39.3096 36.875H44.375V33.125H39.3096V36.875ZM11.7432 23.125H48.2559V9.25586H11.7432V23.125Z" fill="#F1F0EE"/>
</svg>
