<svg width="684" height="60" viewBox="0 0 684 60" fill="none" xmlns="http://www.w3.org/2000/svg">
<path d="M670.741 1.37915H683.609V58.1476H670.741V1.37915Z" fill="#101010"/>
<path d="M651.129 49.6702L646.663 50.3514V1.37915H659.152V58.1476H642.879L606.547 9.17536L610.937 8.49414V58.1476H598.524V1.37915H615.176L651.129 49.6702Z" fill="#101010"/>
<path d="M537.612 46.1884V35.743H576.971V46.1884H537.612ZM565.845 1.37915L592.412 58.1476H578.712L555.475 6.60185H559.714L536.477 58.1476H522.777L549.344 1.37915H565.845Z" fill="#101010"/>
<path d="M463.92 58.1476V1.37915H476.712V47.7022L473.079 45.1287L508.199 1.37915H521.899L475.501 58.1476H463.92ZM491.017 30.3689L500.252 22.1186L522.732 58.1476H508.048L491.017 30.3689Z" fill="#101010"/>
<path d="M421.393 7.13169H434.184V58.1476H421.393V7.13169ZM398.761 1.37915H456.74V12.7329H398.761V1.37915Z" fill="#101010"/>
<path d="M332.558 26.5844H354.433C357.309 26.5844 359.58 25.9284 361.245 24.6164C362.961 23.2539 363.818 21.3869 363.818 19.0152C363.818 16.6436 362.961 14.8017 361.245 13.4898C359.58 12.1778 357.309 11.5218 354.433 11.5218H330.666L336.494 4.93665V58.1476H323.627V1.37915H355.947C360.084 1.37915 363.718 2.13606 366.846 3.64989C369.975 5.11326 372.422 7.15692 374.188 9.78089C375.954 12.4049 376.837 15.483 376.837 19.0152C376.837 22.497 375.954 25.5499 374.188 28.1739C372.422 30.7978 369.975 32.8667 366.846 34.3806C363.718 35.8439 360.084 36.5756 355.947 36.5756H332.558V26.5844ZM342.398 31.58H357.082L378.503 58.1476H363.44L342.398 31.58Z" fill="#101010"/>
<path d="M311.493 24.8435V34.6833H270.847V24.8435H311.493ZM279.475 29.7634L275.691 53.8332L270.09 47.4752H313.839V58.1476H262.748L267.138 29.7634L262.748 1.37915H313.461V12.0516H270.09L275.691 5.69356L279.475 29.7634Z" fill="#101010"/>
<path d="M222.044 7.13169H234.835V58.1476H222.044V7.13169ZM199.412 1.37915H257.391V12.7329H199.412V1.37915Z" fill="#101010"/>
<path d="M184.34 49.6702L179.874 50.3514V1.37915H192.363V58.1476H176.09L139.758 9.17536L144.148 8.49414V58.1476H131.735V1.37915H148.387L184.34 49.6702Z" fill="#101010"/>
<path d="M119.607 24.8435V34.6833H78.9611V24.8435H119.607ZM87.5899 29.7634L83.8053 53.8332L78.2042 47.4752H121.954V58.1476H70.8622L75.2523 29.7634L70.8622 1.37915H121.575V12.0516H78.2042L83.8053 5.69356L87.5899 29.7634Z" fill="#101010"/>
<path d="M64.4332 35.0624C63.8782 39.8562 62.1877 44.0949 59.3619 47.7785C56.5866 51.4117 52.903 54.2375 48.3111 56.256C43.7696 58.2744 38.5722 59.2836 32.7187 59.2836C26.2598 59.2836 20.5829 58.0473 15.6883 55.5747C10.844 53.1022 7.0595 49.6708 4.33463 45.2807C1.60975 40.8402 0.247314 35.6679 0.247314 29.764C0.247314 23.8601 1.60975 18.7131 4.33463 14.323C7.0595 9.88241 10.844 6.42584 15.6883 3.95326C20.5829 1.48068 26.2598 0.244385 32.7187 0.244385C38.5722 0.244385 43.7696 1.2536 48.3111 3.27204C52.903 5.29047 56.5866 8.11628 59.3619 11.7495C62.1877 15.3827 63.8782 19.6214 64.4332 24.4656H51.4901C50.9855 21.7912 49.9006 19.4952 48.2354 17.5777C46.5702 15.6097 44.4256 14.0959 41.8016 13.0362C39.1777 11.9765 36.1248 11.4467 32.643 11.4467C28.6566 11.4467 25.2001 12.2036 22.2734 13.7174C19.3971 15.1808 17.1769 17.3002 15.6126 20.0755C14.0483 22.8004 13.2662 26.0299 13.2662 29.764C13.2662 33.4981 14.0483 36.7528 15.6126 39.5282C17.1769 42.2531 19.3971 44.3724 22.2734 45.8863C25.2001 47.3496 28.6566 48.0813 32.643 48.0813C36.1248 48.0813 39.1777 47.5767 41.8016 46.5675C44.4256 45.5078 46.5702 44.0192 48.2354 42.1017C49.9006 40.1337 50.9855 37.7873 51.4901 35.0624H64.4332Z" fill="#101010"/>
</svg>
