<svg width="20" height="20" viewBox="0 0 20 20" fill="none" xmlns="http://www.w3.org/2000/svg">
<path fill-rule="evenodd" clip-rule="evenodd" d="M9.99984 1.6665C7.7365 1.6665 7.45317 1.6765 6.564 1.7165C5.67734 1.75734 5.0715 1.89817 4.5415 2.104C3.98523 2.31302 3.48128 2.64093 3.06484 3.06484C2.64093 3.48128 2.31302 3.98523 2.104 4.5415C1.89817 5.0715 1.75734 5.67734 1.7165 6.564C1.67567 7.45317 1.6665 7.7365 1.6665 9.99984C1.6665 12.2632 1.67567 12.5465 1.7165 13.4357C1.75734 14.3223 1.89817 14.9282 2.104 15.4582C2.31302 16.0144 2.64093 16.5184 3.06484 16.9348C3.48128 17.3587 3.98523 17.6867 4.5415 17.8957C5.0715 18.1015 5.67734 18.2423 6.564 18.2832C7.45317 18.3232 7.7365 18.3332 9.99984 18.3332C12.2632 18.3332 12.5465 18.3232 13.4357 18.2832C14.3223 18.2423 14.9282 18.1015 15.4582 17.8957C16.0144 17.6867 16.5184 17.3587 16.9348 16.9348C17.3587 16.5184 17.6867 16.0144 17.8957 15.4582C18.1015 14.9282 18.2423 14.3223 18.2832 13.4357C18.3232 12.5465 18.3332 12.2632 18.3332 9.99984C18.3332 7.7365 18.3232 7.45317 18.2832 6.564C18.2423 5.67734 18.1015 5.0715 17.8957 4.5415C17.6867 3.98523 17.3587 3.48128 16.9348 3.06484C16.5184 2.64093 16.0144 2.31302 15.4582 2.104C14.9282 1.89817 14.3223 1.75734 13.4357 1.7165C12.5465 1.6765 12.2632 1.6665 9.99984 1.6665ZM9.99984 3.16817C12.2248 3.16817 12.4882 3.1765 13.3665 3.2165C14.1798 3.254 14.6207 3.389 14.9148 3.50317C15.3032 3.65484 15.5815 3.83567 15.8732 4.1265C16.1648 4.41817 16.3448 4.6965 16.4965 5.08484C16.6098 5.379 16.7465 5.81984 16.7832 6.63234C16.8232 7.5115 16.8315 7.774 16.8315 9.99984C16.8315 12.2248 16.8232 12.4882 16.7832 13.3665C16.7457 14.1798 16.6098 14.6207 16.4965 14.9148C16.3629 15.2768 16.1499 15.6043 15.8732 15.8732C15.5815 16.1648 15.3032 16.3448 14.9148 16.4965C14.6207 16.6098 14.1798 16.7465 13.3673 16.7832C12.489 16.8232 12.2257 16.8315 9.99984 16.8315C7.77484 16.8315 7.51067 16.8232 6.63317 16.7832C5.81984 16.7457 5.379 16.6098 5.08484 16.4965C4.72285 16.3629 4.39539 16.1499 4.1265 15.8732C3.84976 15.6043 3.63677 15.2768 3.50317 14.9148C3.389 14.6207 3.25317 14.1798 3.2165 13.3673C3.1765 12.4882 3.16817 12.2257 3.16817 9.99984C3.16817 7.77484 3.1765 7.5115 3.2165 6.63317C3.254 5.81984 3.389 5.379 3.50317 5.08484C3.65484 4.6965 3.83567 4.41817 4.1265 4.1265C4.41817 3.83484 4.6965 3.65484 5.08484 3.50317C5.379 3.389 5.81984 3.25317 6.63234 3.2165C7.5115 3.1765 7.774 3.16817 9.99984 3.16817ZM9.99984 12.7773C9.2632 12.7773 8.55673 12.4847 8.03585 11.9638C7.51497 11.4429 7.22234 10.7365 7.22234 9.99984C7.22234 9.2632 7.51497 8.55673 8.03585 8.03585C8.55673 7.51497 9.2632 7.22234 9.99984 7.22234C10.7365 7.22234 11.4429 7.51497 11.9638 8.03585C12.4847 8.55673 12.7773 9.2632 12.7773 9.99984C12.7773 10.7365 12.4847 11.4429 11.9638 11.9638C11.4429 12.4847 10.7365 12.7773 9.99984 12.7773ZM9.99984 5.72067C9.43789 5.72067 8.88144 5.83135 8.36227 6.0464C7.8431 6.26145 7.37137 6.57665 6.97401 6.97401C6.57665 7.37137 6.26145 7.8431 6.0464 8.36227C5.83135 8.88144 5.72067 9.43789 5.72067 9.99984C5.72067 10.5618 5.83135 11.1182 6.0464 11.6374C6.26145 12.1566 6.57665 12.6283 6.97401 13.0257C7.37137 13.423 7.8431 13.7382 8.36227 13.9533C8.88144 14.1683 9.43789 14.279 9.99984 14.279C11.1347 14.279 12.2232 13.8282 13.0257 13.0257C13.8282 12.2232 14.279 11.1347 14.279 9.99984C14.279 8.86493 13.8282 7.77651 13.0257 6.97401C12.2232 6.17151 11.1347 5.72067 9.99984 5.72067ZM15.4482 5.5515C15.4482 5.68283 15.4223 5.81286 15.372 5.93419C15.3218 6.05551 15.2481 6.16575 15.1553 6.25861C15.0624 6.35147 14.9522 6.42513 14.8309 6.47538C14.7095 6.52564 14.5795 6.5515 14.4482 6.5515C14.3168 6.5515 14.1868 6.52564 14.0655 6.47538C13.9442 6.42513 13.8339 6.35147 13.7411 6.25861C13.6482 6.16575 13.5745 6.05551 13.5243 5.93419C13.474 5.81286 13.4482 5.68283 13.4482 5.5515C13.4482 5.28629 13.5535 5.03193 13.7411 4.8444C13.9286 4.65686 14.183 4.5515 14.4482 4.5515C14.7134 4.5515 14.9677 4.65686 15.1553 4.8444C15.3428 5.03193 15.4482 5.28629 15.4482 5.5515Z" fill="#101010"/>
</svg>
