<svg width="205" height="90" viewBox="0 0 205 90" fill="none" xmlns="http://www.w3.org/2000/svg">
<path d="M204.155 39.8734C202.447 20.8653 188.405 5.47953 168.942 1.07407C153.733 -2.36806 141.112 3.29834 128.902 11.5532C104.533 28.0237 80.105 44.4159 55.3875 60.3578C45.3195 66.8504 34.0964 64.121 28.6102 54.6992C23.1043 45.2383 24.9292 36.5331 33.1448 29.6293C41.2548 22.8155 52.6307 24.8087 60.2511 33.8898C63.0158 37.1831 65.5416 40.6762 68.4081 44.3689C75.6095 39.4936 82.11 35.0959 88.8768 30.5182C85.3485 25.3021 82.8384 21.0729 79.827 17.2313C67.4251 1.40301 46.7293 -4.10283 28.1677 3.29442C9.56293 10.7113 -1.37435 28.5759 0.211616 48.9584C1.69185 68.0017 15.617 83.5403 34.9266 88.2198C49.0436 91.6424 61.2497 87.5306 72.8174 79.7888C97.6289 63.1851 122.378 46.4835 147.401 30.1971C158.62 22.8938 169.201 24.7695 175.627 34.1326C181.528 42.736 179.523 53.963 170.971 60.1737C161.917 66.7486 151.195 64.3912 143.125 54.0727C140.81 51.1122 138.449 48.1831 136.033 45.1443C128.749 50.1215 122.538 54.3664 115.764 58.995C119.19 64.0427 121.841 68.6635 125.166 72.7283C138.042 88.4705 158.573 93.6082 177.049 85.9877C195.493 78.383 206.007 60.4909 204.155 39.8656V39.8734Z" fill="#9B1E1C"/>
<path d="M89.7976 76.3579C92.4017 82.8623 98.8552 86.9976 105.861 86.9976L126.157 86.884C125.292 85.5447 125.159 85.161 124.583 84.3034C119.179 76.2208 114.648 69.4462 109.992 62.4836C102.352 67.6527 96.1884 71.8232 89.731 76.1934C89.7506 76.2482 89.7741 76.3031 89.7937 76.354L89.7976 76.3579Z" fill="#9B1E1C"/>
<path d="M114.189 11.5383C111.585 5.03394 105.131 0.898682 98.1257 0.898682L77.8293 1.01224C78.6947 2.3515 78.8278 2.73527 79.4035 3.59286C84.8075 11.6754 89.3383 18.45 93.9943 25.4126C101.634 20.2435 107.798 16.073 114.256 11.7028C114.236 11.648 114.212 11.5932 114.193 11.5423L114.189 11.5383Z" fill="#9B1E1C"/>
<path d="M141.941 21.7454C142.735 21.7454 143.379 21.102 143.379 20.3083C143.379 19.5145 142.735 18.8711 141.941 18.8711C141.148 18.8711 140.504 19.5145 140.504 20.3083C140.504 21.102 141.148 21.7454 141.941 21.7454Z" fill="#9B1E1C"/>
</svg>
