<svg width="20" height="20" viewBox="0 0 20 20" fill="none" xmlns="http://www.w3.org/2000/svg">
<path d="M12.2542 16.3621L12.2542 16.362L10.0376 13.8419C8.94029 12.5943 8.81035 12.046 8.88254 11.9278L9.71447 11.2578L13.0864 8.62035C13.3583 8.40769 13.4063 8.01488 13.1936 7.74299C12.981 7.47111 12.5882 7.4231 12.3163 7.63576L8.9408 10.2759L7.92572 11.1044C7.68876 11.3588 7.53763 11.7937 7.70245 12.4121C7.85627 12.9893 8.2877 13.7522 9.20635 14.7994L8.86706 15.4685C8.64794 15.7731 8.44448 16.0559 8.25724 16.2498C8.07119 16.4424 7.73312 16.7254 7.26226 16.6318C6.79759 16.5393 6.58908 16.1552 6.48584 15.9086C6.38099 15.6583 6.29218 15.3187 6.19583 14.9503L5.77791 13.3532C5.54578 12.4662 5.46562 12.2112 5.31457 12.0235C5.29551 11.9998 5.27565 11.9769 5.25505 11.9549C5.09558 11.7841 4.87036 11.6791 4.04539 11.3484L4.00021 11.3303C3.18721 11.0044 2.51753 10.736 2.04913 10.4723C1.59535 10.2168 1.10532 9.84531 1.04894 9.21859C1.04018 9.12119 1.04033 9.02315 1.04939 8.92578C1.10769 8.29918 1.59894 7.9293 2.05352 7.67531C2.52275 7.41313 3.19326 7.14694 4.00725 6.82379L13.994 2.85877L13.994 2.85876C15.0155 2.45316 15.8508 2.12149 16.5072 1.97029C17.1763 1.81612 17.8676 1.7998 18.4093 2.30084C18.9402 2.79199 19.0038 3.4839 18.9376 4.18123C18.872 4.87308 18.6561 5.77285 18.3899 6.88275L16.3735 15.2886L16.3735 15.2887C16.2038 15.9962 16.0606 16.5934 15.8888 17.0268C15.7152 17.4646 15.4369 17.9347 14.8745 18.0834C14.3053 18.2339 13.8349 17.9533 13.4774 17.6508C13.1262 17.3536 12.7258 16.8982 12.2542 16.3621Z" fill="#101010"/>
</svg>
