<svg width="20" height="20" viewBox="0 0 20 20" fill="none" xmlns="http://www.w3.org/2000/svg">
<path d="M10.001 18.9595C14.9484 18.9593 18.959 14.9479 18.959 10.0005C18.9588 5.05319 14.9483 1.04264 10.001 1.04248C5.05353 1.04248 1.04217 5.05308 1.04199 10.0005C1.04199 11.2346 1.29258 12.4124 1.74512 13.4839C1.86376 13.7648 1.94364 13.9552 1.99707 14.1011C2.05102 14.2485 2.05949 14.3025 2.06055 14.3169C2.06596 14.3952 2.04528 14.5023 1.91016 15.0073L1.06348 18.1724C1.00578 18.388 1.06776 18.618 1.22559 18.7759C1.38342 18.9337 1.61348 18.9957 1.8291 18.938L4.99414 18.0913C5.49917 17.9562 5.60632 17.9355 5.68457 17.9409C5.69895 17.942 5.75298 17.9504 5.90039 18.0044C6.04629 18.0578 6.23667 18.1377 6.51758 18.2563C7.58906 18.7089 8.7669 18.9595 10.001 18.9595ZM13.3477 14.7554C12.9591 14.8367 12.663 14.7695 12.3467 14.6978L12.3027 14.688C10.6992 14.3259 9.12654 13.4786 7.82422 12.1763C6.52218 10.8741 5.67557 9.30204 5.31348 7.69873L5.30371 7.65479C5.23193 7.33847 5.16473 7.04243 5.24609 6.65381C5.30547 6.37038 5.45594 6.107 5.61914 5.90283C5.78234 5.69867 6.00614 5.49389 6.26953 5.37354C6.63203 5.20795 7.00085 5.2088 7.40039 5.20947H7.47852C7.66221 5.20948 7.97122 5.21545 8.25684 5.33447C8.59824 5.47679 8.88013 5.76955 8.95215 6.229V6.23389L9.1543 7.54248C9.17656 7.69564 9.19377 7.82288 9.20508 7.92236C9.21437 8.00415 9.22621 8.11729 9.2207 8.21143C9.19675 8.61922 9.03057 8.94358 8.8584 9.19482C8.74881 9.3547 8.60268 9.52892 8.4873 9.66553C8.44203 9.71914 8.40161 9.76705 8.37012 9.80615C8.19111 10.0285 8.10144 10.1396 8.0752 10.2749C8.06084 10.3491 8.06295 10.4408 8.08105 10.5142C8.11419 10.6478 8.20094 10.7451 8.37402 10.939C8.48113 11.0589 8.59243 11.1769 8.70801 11.2925C8.82377 11.4082 8.94234 11.5202 9.0625 11.6274C9.25647 11.8006 9.35353 11.8873 9.4873 11.9204C9.56065 11.9385 9.65239 11.9406 9.72656 11.9263C9.86185 11.9 9.97307 11.8103 10.1953 11.6313C10.2344 11.5999 10.2823 11.5594 10.3359 11.5142C10.4726 11.3987 10.6467 11.2517 10.8066 11.1421C11.0579 10.97 11.3823 10.8047 11.79 10.7808C11.8842 10.7753 11.9973 10.7871 12.0791 10.7964C12.1786 10.8077 12.3059 10.8249 12.459 10.8472C12.7652 10.8917 13.1982 10.9591 13.7676 11.0483L13.7725 11.0493C14.2319 11.1214 14.5247 11.4032 14.667 11.7446C14.786 12.0303 14.792 12.3393 14.792 12.5229V12.6001C14.7927 12.9998 14.7936 13.3693 14.6279 13.7319C14.5076 13.9953 14.3028 14.2191 14.0986 14.3823C13.8945 14.5455 13.631 14.696 13.3477 14.7554Z" fill="#101010"/>
</svg>
