<svg width="34" height="34" viewBox="0 0 34 34" fill="none" xmlns="http://www.w3.org/2000/svg">
<rect width="34" height="34" rx="8" fill="#9B1E1C"/>
<g clip-path="url(#clip0_33_11762)">
<path d="M31.4704 16.3052C31.2281 13.6071 29.2348 11.4231 26.4722 10.7978C24.3132 10.3092 22.5217 11.1135 20.7886 12.2853C17.3295 14.6232 13.8621 16.95 10.3535 19.2129C8.92444 20.1345 7.33136 19.747 6.55261 18.4097C5.77108 17.0667 6.03011 15.8311 7.19629 14.8511C8.34746 13.8839 9.96222 14.1668 11.0439 15.4559C11.4363 15.9233 11.7949 16.4192 12.2018 16.9433C13.224 16.2513 14.1467 15.6271 15.1072 14.9773C14.6064 14.2369 14.2501 13.6365 13.8226 13.0913C12.0622 10.8445 9.12455 10.063 6.4898 11.113C3.84894 12.1658 2.29644 14.7016 2.52156 17.5948C2.73167 20.2979 4.70829 22.5035 7.4492 23.1678C9.45306 23.6536 11.1857 23.0699 12.8276 21.971C16.3495 19.6142 19.8625 17.2435 23.4144 14.9317C25.007 13.895 26.5089 14.1613 27.421 15.4903C28.2587 16.7115 27.9741 18.3052 26.7601 19.1867C25.475 20.12 23.9531 19.7854 22.8074 18.3207C22.4789 17.9005 22.1438 17.4847 21.8008 17.0534C20.7669 17.7599 19.8853 18.3624 18.9237 19.0194C19.4101 19.7359 19.7864 20.3918 20.2583 20.9688C22.0859 23.2033 25.0003 23.9326 27.6228 22.8509C30.2409 21.7715 31.7333 19.2318 31.4704 16.3041V16.3052Z" fill="#F1F0EE"/>
<path d="M15.2399 21.484C15.6096 22.4073 16.5256 22.9943 17.52 22.9943L20.401 22.9782C20.2782 22.7881 20.2593 22.7336 20.1776 22.6119C19.4105 21.4646 18.7674 20.503 18.1065 19.5146C17.022 20.2484 16.1471 20.8404 15.2305 21.4607C15.2332 21.4685 15.2371 21.4768 15.2399 21.484Z" fill="#F1F0EE"/>
<path d="M18.7002 12.2837C18.3305 11.3604 17.4145 10.7734 16.4201 10.7734L13.5391 10.7896C13.6619 10.9797 13.6808 11.0341 13.7625 11.1559C14.5296 12.3031 15.1727 13.2648 15.8336 14.2531C16.9181 13.5194 17.793 12.9274 18.7096 12.307C18.7068 12.2993 18.7035 12.2915 18.7007 12.2842L18.7002 12.2837Z" fill="#F1F0EE"/>
<path d="M22.6376 13.7322C22.7503 13.7322 22.8416 13.6409 22.8416 13.5282C22.8416 13.4156 22.7503 13.3242 22.6376 13.3242C22.5249 13.3242 22.4336 13.4156 22.4336 13.5282C22.4336 13.6409 22.5249 13.7322 22.6376 13.7322Z" fill="#F1F0EE"/>
</g>
<defs>
<clipPath id="clip0_33_11762">
<rect width="29" height="12.6929" fill="white" transform="translate(2.5 10.6533)"/>
</clipPath>
</defs>
</svg>
