<svg width="60" height="60" viewBox="0 0 60 60" fill="none" xmlns="http://www.w3.org/2000/svg">
<path d="M46.875 18.0596C48.697 18.1024 50.5725 18.125 52.5 18.125H54.375V56.875H52.2588C34.9468 56.8752 20.7725 56.8754 6.60254 49.1465L5.625 48.6133V14.2236C9.45466 11.2123 12.1211 9.57207 15.21 8.27148C21.393 5.66815 31.0173 3.125 45 3.125H46.875V18.0596ZM41.25 32.5C38.4886 32.5 36.25 34.7386 36.25 37.5C36.25 40.2614 38.4886 42.5 41.25 42.5C44.0114 42.5 46.25 40.2614 46.25 37.5C46.25 34.7386 44.0114 32.5 41.25 32.5ZM41.9492 8.48438C30.0588 8.76328 21.9159 11.0358 16.7393 13.2383C15.6438 13.7043 14.6788 14.1679 13.8379 14.6104C19.9175 15.8692 29.4917 17.3322 41.9492 17.8916V8.48438Z" fill="#F1F0EE"/>
</svg>
