<svg xmlns="http://www.w3.org/2000/svg" width="20" height="20" viewBox="0 0 20 20" fill="none">
  <path d="M14.4824 0.00170898C15.5851 0.0184968 16.7531 0.0461042 17.7402 0.604248C18.8407 1.19184 19.6322 2.30657 19.8506 3.53198C19.985 4.26212 20.0021 5.01108 20 5.75171C19.9958 8.80494 20.0067 11.8585 19.9941 14.9138C19.9836 16.1161 19.7901 17.394 18.9922 18.3445C18.1331 19.4609 16.6999 19.96 15.3262 19.9705C12.726 20.0271 10.1238 19.9812 7.52148 19.9958C6.25716 19.977 4.98639 20.0591 3.73047 19.8787C2.403 19.6961 1.15887 18.8649 0.564453 17.6541C-0.00675458 16.5944 0.00825353 15.3521 0.00195312 14.1833C0.0103544 11.0925 -0.0125041 8.0016 0.0126953 4.91284C0.0126953 3.572 0.377972 2.1428 1.40918 1.21948C2.38579 0.254287 3.80965 0.00453905 5.13281 0.0065918C8.24774 -0.00599885 11.3654 0.00380743 14.4824 0.00170898ZM5.70312 1.17749C4.5352 1.17569 3.27815 1.39603 2.41602 2.2478C1.50575 3.06282 1.18269 4.32495 1.18262 5.50854C1.16037 8.23522 1.18124 10.9646 1.17383 13.6931C1.17591 14.0804 1.17509 14.4773 1.2002 14.8708C1.19072 14.8736 1.18139 14.8769 1.17188 14.8796C1.21465 15.5292 1.32878 16.1711 1.6416 16.7507C2.10515 17.6933 3.01571 18.374 4.0293 18.6326C4.17267 18.6702 4.31818 18.7003 4.46484 18.7205C5.57356 18.8797 6.69539 18.8073 7.81152 18.824C10.1089 18.811 12.4066 18.8525 14.7021 18.8025C15.9146 18.7932 17.179 18.352 17.9375 17.3669C18.4079 16.8066 18.6369 16.1163 18.7422 15.4041C18.747 15.3717 18.7516 15.3389 18.7559 15.3064C18.7983 14.9839 18.8195 14.6577 18.8223 14.3376C18.8334 11.6407 18.8244 8.94487 18.8281 6.24976C18.83 5.59613 18.8148 4.93417 18.6963 4.28979C18.5033 3.20813 17.8045 2.22349 16.833 1.70483C15.9616 1.21225 14.9304 1.1884 13.957 1.17358C11.2053 1.17544 8.45298 1.16638 5.70312 1.17749ZM13.9541 1.35815V1.35913C14.9353 1.37407 15.9176 1.4006 16.7412 1.86597L16.7451 1.8689C17.6652 2.3601 18.3304 3.29473 18.5137 4.32202L18.5146 4.323C18.6299 4.94944 18.6444 5.59665 18.6426 6.24878C18.6389 8.94508 18.6488 11.6391 18.6377 14.3357C18.6364 14.478 18.6311 14.6211 18.623 14.7634C18.2304 14.3507 17.5853 14.1486 16.874 13.864C16.2068 13.5972 15.4743 13.2388 15.0215 13.0828C14.2419 12.8136 13.6185 12.4921 13.042 12.198C12.625 11.985 12.2635 11.7408 11.7324 11.7576C10.6882 11.7905 10.5338 12.3329 10.0684 12.3503C9.69023 12.3639 9.16842 11.8368 8.36816 11.7927C7.66629 11.7548 6.94046 12.1516 5.76758 12.8542C5.08435 13.2635 4.30134 13.7938 3.01758 14.3005C2.5475 14.4861 2.0056 14.6384 1.38281 14.8171C1.3761 14.7033 1.37146 14.5884 1.36816 14.4734L1.3584 13.6921C1.36581 10.9608 1.34592 8.23578 1.36816 5.50952V5.50854C1.36824 4.3514 1.6835 3.15098 2.53809 2.3855L2.53906 2.38647L2.5459 2.37964C3.35501 1.58011 4.54992 1.36025 5.70312 1.36206H5.7041C8.45271 1.35095 11.2022 1.36 13.9541 1.35815ZM9.9834 3.31909C8.11597 3.31916 6.60194 4.83044 6.60156 6.69409C6.60156 7.62553 7.04179 8.41323 7.5918 9.07983C8.0275 9.6078 9.30726 11.0804 9.9834 11.7566C10.7451 10.9741 11.797 9.74452 12.375 9.07983C12.942 8.42764 13.3652 7.62553 13.3652 6.69409C13.3649 4.83044 11.8508 3.31916 9.9834 3.31909ZM9.9834 5.52905C10.6303 5.52913 11.1549 6.05408 11.1553 6.70093C11.1551 7.34797 10.6305 7.87273 9.9834 7.8728C9.33633 7.87274 8.81166 7.34798 8.81152 6.70093C8.8119 6.05408 9.33648 5.52912 9.9834 5.52905ZM8.95801 2.48511C8.88026 2.48523 8.83122 2.53905 8.83105 2.62378C8.83108 2.70872 8.88016 2.76135 8.95801 2.76147C9.03584 2.76147 9.08494 2.70882 9.08496 2.62378C9.0848 2.53895 9.03573 2.48511 8.95801 2.48511ZM11.9619 2.48511C11.8841 2.48516 11.8351 2.53899 11.835 2.62378C11.835 2.70877 11.884 2.76142 11.9619 2.76147C12.0397 2.76145 12.0888 2.7088 12.0889 2.62378C12.0887 2.53897 12.0396 2.48513 11.9619 2.48511ZM8.05859 2.48999V2.53003H8.13867V2.75757H8.18652V2.53003H8.2666V2.48999H8.05859ZM8.45117 2.48999V2.75757H8.49902V2.65698H8.55078L8.60352 2.75757H8.6582L8.59961 2.64917C8.63134 2.63761 8.64941 2.60831 8.64941 2.573C8.64917 2.52222 8.61511 2.49007 8.55762 2.48999H8.45117ZM9.27539 2.48999V2.75757H9.32324V2.6687H9.37695C9.43091 2.66868 9.46855 2.63297 9.46875 2.57983C9.46856 2.52668 9.43196 2.48999 9.37891 2.48999H9.27539ZM9.70898 2.48999L9.61426 2.75757H9.66309L9.68652 2.68823H9.78418L9.80762 2.75757H9.85742L9.7627 2.48999H9.70898ZM10.2666 2.48999V2.75757H10.3125V2.57007H10.3135L10.4473 2.75757H10.4883V2.48999H10.4424V2.67749H10.4404L10.3076 2.48999H10.2666ZM10.7637 2.48999L10.6689 2.75757H10.7178L10.7402 2.68823H10.8389L10.8623 2.75757H10.9121L10.8174 2.48999H10.7637ZM11.0928 2.48999V2.75757H11.1406V2.65698H11.1924L11.2451 2.75757H11.2998L11.2412 2.64917C11.273 2.63763 11.292 2.60833 11.292 2.573C11.2917 2.5222 11.2568 2.49004 11.1992 2.48999H11.0928ZM11.4678 2.48999V2.53003H11.5479V2.75757H11.5947V2.53003H11.6748V2.48999H11.4678ZM12.251 2.48999L12.3438 2.75757H12.3984L12.4922 2.48999H12.4404L12.3721 2.70581H12.3711L12.3037 2.48999H12.251ZM8.95801 2.52612C9.00553 2.52612 9.03599 2.56434 9.03613 2.62378C9.03611 2.68324 9.00563 2.72144 8.95801 2.72144C8.91036 2.72129 8.8799 2.68313 8.87988 2.62378C8.88003 2.56445 8.91046 2.52627 8.95801 2.52612ZM11.9619 2.52612C12.0094 2.52615 12.0399 2.56436 12.04 2.62378C12.04 2.68322 12.0095 2.72141 11.9619 2.72144C11.9142 2.72137 11.8838 2.68319 11.8838 2.62378C11.8839 2.56439 11.9143 2.52619 11.9619 2.52612ZM9.73633 2.53687L9.77344 2.65112H9.69727L9.73438 2.53687H9.73633ZM10.79 2.53687L10.8281 2.65112H10.752L10.7891 2.53687H10.79ZM9.36621 2.52905C9.40035 2.52905 9.42072 2.54803 9.4209 2.57983C9.42073 2.61199 9.40032 2.63059 9.36621 2.63062H9.32324V2.52905H9.36621ZM8.55176 2.52905C8.58173 2.52905 8.60029 2.5462 8.60059 2.57397C8.60059 2.60289 8.58313 2.61987 8.55273 2.61987H8.49902V2.52905H8.55176ZM11.1934 2.52905C11.2233 2.52905 11.2419 2.5462 11.2422 2.57397C11.2422 2.60289 11.2247 2.61987 11.1943 2.61987H11.1406V2.52905H11.1934Z" fill="#24A79C" fill-opacity="0.4"/>
</svg>

