<svg width="24" height="24" viewBox="0 0 24 24" fill="none" xmlns="http://www.w3.org/2000/svg">
<path d="M19.6641 1.33519C19.8965 1.219 20.1725 1.23183 20.3936 1.36839C20.6146 1.50502 20.7499 1.74622 20.75 2.00609V11.5334C20.75 12.4418 20.7497 13.162 20.71 13.7453C20.6693 14.3412 20.584 14.8494 20.3877 15.3235C20.1285 15.9493 19.7408 16.5056 19.2571 16.9614C19.125 17.0858 19.059 17.148 19.0295 17.2163C19 17.2846 19 17.366 19 17.5287V20.2841C19 20.6235 19 20.7933 19.1054 20.8987C19.2109 21.0041 19.3806 21.0041 19.72 21.0041H19.7383C20.2904 21.0041 20.7381 21.452 20.7383 22.0041C20.7383 22.5564 20.2906 23.0041 19.7383 23.0041H6.74609C4.8131 23.0041 3.24609 21.4371 3.24609 19.5041C3.2461 19.4524 3.24741 19.4009 3.25 19.3498V10.6457C3.24999 9.19104 3.24972 8.03775 3.34863 7.12035C3.45007 6.17989 3.66282 5.39861 4.14844 4.72582C4.44595 4.31365 4.80755 3.95106 5.21973 3.65355C5.51274 3.44211 5.82647 3.28291 6.16496 3.16209C6.51819 3.03601 6.69481 2.97297 6.8474 3.08052C7 3.18808 7 3.39461 7 3.80768V8.00609C7 8.55837 7.44772 9.00609 8 9.00609C8.55211 9.00588 9 8.55824 9 8.00609V3.47481C9 3.14285 9 2.97688 9.104 2.87169C9.208 2.7665 9.37232 2.76464 9.70096 2.76091C10.1445 2.75588 10.623 2.75511 11.1396 2.75511H11.1836C11.7555 2.75511 12.4253 2.77377 13.0713 2.79125C13.521 2.80342 13.96 2.81532 14.3457 2.82054C15.2377 2.83261 15.628 2.83732 16.3916 2.70238C17.1673 2.5653 17.2457 2.53392 17.3398 2.4973L17.3613 2.48949C17.8246 2.31332 18.2407 2.0885 18.7305 1.82445C19.0101 1.67367 19.3141 1.51019 19.6641 1.33519ZM6.24609 18.5041C5.69395 18.5041 5.24632 18.952 5.24609 19.5041C5.24609 20.3326 5.91767 21.0041 6.74609 21.0041H16.28C16.6194 21.0041 16.7891 21.0041 16.8946 20.8987C17 20.7933 17 20.6235 17 20.2841V19.2241C17 18.8847 17 18.715 16.8946 18.6096C16.7891 18.5041 16.6194 18.5041 16.28 18.5041H6.24609Z" fill="#24A79C"/>
</svg>
