<svg xmlns="http://www.w3.org/2000/svg" width="16" height="16" viewBox="0 0 16 16" fill="none">
  <path d="M8.03575 0.833496C9.26196 0.833487 10.2314 0.833479 10.9896 0.931701C11.7679 1.03252 12.399 1.24465 12.8985 1.72592C13.4007 2.2097 13.6244 2.82511 13.7303 3.58366C13.8327 4.31783 13.8327 5.25488 13.8327 6.43313V12.0307C13.8327 12.7624 13.8327 13.3704 13.7625 13.8272C13.6898 14.2998 13.5203 14.7599 13.053 15.0094C12.6362 15.232 12.1778 15.1867 11.7891 15.0687C11.3959 14.9494 10.9963 14.7328 10.6305 14.5016C10.2611 14.2682 9.86189 13.9747 9.547 13.742C9.23845 13.5139 8.99064 13.3307 8.80142 13.2168C8.53505 13.0564 8.36685 12.9558 8.23051 12.8916C8.10468 12.8323 8.04355 12.8229 7.99935 12.8229C7.95515 12.8229 7.89403 12.8323 7.76819 12.8916C7.63185 12.9558 7.46366 13.0564 7.19728 13.2168C7.00807 13.3307 6.76025 13.5139 6.45171 13.742C6.13681 13.9747 5.73761 14.2682 5.36825 14.5016C5.00237 14.7328 4.60277 14.9494 4.20964 15.0687C3.82095 15.1867 3.36252 15.232 2.94573 15.0094C2.47839 14.7599 2.30894 14.2998 2.23623 13.8272C2.16597 13.3704 2.16599 12.7624 2.16602 12.0307L2.16602 6.43311C2.16601 5.25487 2.166 4.31783 2.26845 3.58366C2.3743 2.82511 2.59801 2.2097 3.10016 1.72592C3.59969 1.24465 4.23076 1.03252 5.00907 0.931701C5.76735 0.833479 6.73674 0.833487 7.96296 0.833496H8.03575Z" fill="currentColor"/>
</svg>
