<svg width="13" height="15" viewBox="0 0 13 15" fill="none" xmlns="http://www.w3.org/2000/svg">
<path d="M0.75 11.4039V5.88835C0.75 3.46611 0.75 2.25499 1.53105 1.50249C2.3121 0.75 3.56918 0.75 6.08333 0.75C8.59749 0.75 9.85457 0.75 10.6356 1.50249C11.4167 2.25499 11.4167 3.46611 11.4167 5.88835V11.4039C11.4167 12.9411 11.4167 13.7097 10.9014 13.9848C9.90369 14.5176 8.03213 12.7401 7.14333 12.2049C6.62786 11.8946 6.37013 11.7394 6.08333 11.7394C5.79654 11.7394 5.5388 11.8946 5.02334 12.2049C4.13453 12.7401 2.26298 14.5176 1.26523 13.9848C0.75 13.7097 0.75 12.9411 0.75 11.4039Z" stroke="white" stroke-width="1.5" stroke-linecap="round" stroke-linejoin="round"/>
</svg>
