<svg xmlns="http://www.w3.org/2000/svg" width="16" height="16" viewBox="0 0 16 16" fill="none">
  <path d="M2.66602 11.9874V6.47185C2.66602 4.04961 2.66602 2.83848 3.44706 2.08599C4.22811 1.3335 5.48519 1.3335 7.99935 1.3335C10.5135 1.3335 11.7706 1.3335 12.5516 2.08599C13.3327 2.83848 13.3327 4.04961 13.3327 6.47185V11.9874C13.3327 13.5246 13.3327 14.2932 12.8175 14.5683C11.8197 15.1011 9.94815 13.3236 9.05935 12.7884C8.54388 12.478 8.28614 12.3229 7.99935 12.3229C7.71255 12.3229 7.45482 12.478 6.93935 12.7884C6.05055 13.3236 4.17899 15.1011 3.18125 14.5683C2.66602 14.2932 2.66602 13.5246 2.66602 11.9874Z" stroke="currentColor" stroke-width="1.5" stroke-linecap="round" stroke-linejoin="round"/>
</svg>
