<svg width="18" height="17" viewBox="0 0 18 17" fill="none" xmlns="http://www.w3.org/2000/svg">
<path d="M13.875 14.5848C13.7179 14.5848 13.6393 14.5848 13.5905 14.6336C13.5417 14.6825 13.5417 14.761 13.5417 14.9182V15.3198C13.5417 15.6354 13.7423 15.924 14.0599 16.0652C14.0724 16.0707 14.0848 16.0763 14.0973 16.0818C14.29 16.1679 14.4772 16.2515 14.7005 16.2515H16.1329C16.3561 16.2515 16.5434 16.1679 16.7361 16.0818C16.7485 16.0763 16.7609 16.0707 16.7734 16.0652C17.091 15.924 17.2917 15.6354 17.2917 15.3198V14.5792C17.2917 14.3661 17.2917 14.2596 17.2329 14.2097C17.1742 14.1598 17.0556 14.1792 16.8184 14.2179C16.7948 14.2218 16.771 14.2253 16.747 14.2285L14.1497 14.5722C14.0862 14.5806 14.0223 14.5848 13.9583 14.5848H13.875Z" fill="#24A79C"/>
<path d="M4.04167 14.585C4.1988 14.585 4.27737 14.585 4.32618 14.6338C4.375 14.6826 4.375 14.7612 4.375 14.9183V15.32C4.375 15.6356 4.17437 15.9242 3.85676 16.0653C3.84428 16.0709 3.83183 16.0764 3.81941 16.082C3.62669 16.168 3.43945 16.2517 3.21619 16.2517H1.78381C1.56055 16.2517 1.37331 16.168 1.1806 16.082C1.16817 16.0764 1.15572 16.0709 1.14324 16.0653C0.825627 15.9242 0.625 15.6356 0.625 15.32V14.5793C0.625 14.3663 0.625 14.2598 0.683731 14.2099C0.742461 14.16 0.861076 14.1793 1.09831 14.2181C1.12188 14.2219 1.14565 14.2254 1.16962 14.2286L3.76698 14.5724C3.83042 14.5808 3.89435 14.585 3.95833 14.585H4.04167Z" fill="#24A79C"/>
<path fill-rule="evenodd" clip-rule="evenodd" d="M0.71316 4.41943C0.918984 4.00778 1.41955 3.84093 1.83119 4.04675L2.66453 4.46342C3.07618 4.66924 3.24303 5.1698 3.0372 5.58145C2.83138 5.9931 2.33082 6.15995 1.91917 5.95413L1.08584 5.53746C0.674189 5.33164 0.507336 4.83108 0.71316 4.41943ZM17.2039 4.41943C17.4097 4.83108 17.2428 5.33164 16.8312 5.53746L15.9979 5.95413C15.5862 6.15995 15.0857 5.9931 14.8798 5.58145C14.674 5.1698 14.8409 4.66924 15.2525 4.46342L16.0858 4.04675C16.4975 3.84093 16.998 4.00778 17.2039 4.41943Z" fill="#24A79C"/>
<path fill-rule="evenodd" clip-rule="evenodd" d="M15.9111 5.45479C16.2601 5.81611 16.6915 6.26257 17.0498 6.74216C17.5001 7.34489 17.9167 8.10099 17.9167 8.95811V11.8502C17.9167 12.5813 17.4222 13.2971 16.6377 13.4009L14.0403 13.7447C14.0132 13.7483 13.9858 13.7501 13.9583 13.7501H3.95833C3.93091 13.7501 3.90351 13.7483 3.87633 13.7447L1.27896 13.4009C0.494436 13.2971 0 12.5813 0 11.8502V8.95811C0 8.10099 0.416531 7.34489 0.86685 6.74216C1.22517 6.26257 1.65636 5.81628 2.00545 5.45497C2.07635 5.38158 2.092 5.3174 2.12506 5.22162L3.01868 2.63215C3.18512 2.14976 3.331 1.72694 3.49256 1.3915C3.66721 1.02887 3.89217 0.696545 4.25711 0.442484C4.62204 0.188424 5.01958 0.0873725 5.43097 0.0420062C5.81152 4.13476e-05 6.27292 6.67774e-05 6.79935 9.69771e-05H11.1173C11.6437 6.67774e-05 12.1051 4.13476e-05 12.4857 0.0420062C12.8971 0.0873725 13.2946 0.188424 13.6596 0.442484C14.0245 0.696545 14.2495 1.02887 14.4241 1.3915C14.5857 1.72694 14.7315 2.14974 14.898 2.63212L15.7916 5.22162C15.8228 5.31189 15.8443 5.38575 15.9111 5.45479ZM4.60808 5.0001C4.28838 5.0001 4.12853 5.0001 4.05376 4.8952C3.979 4.79031 4.03114 4.6392 4.13544 4.33699L4.53986 3.16508C4.72369 2.63239 4.84125 2.29548 4.95922 2.05054C5.10911 1.73931 5.27217 1.63211 5.61446 1.59437C5.89233 1.56372 6.26041 1.56254 6.84174 1.56254H11.0749C11.6563 1.56254 12.0243 1.56372 12.3022 1.59437C12.6445 1.63211 12.8076 1.73931 12.9574 2.05054C13.0754 2.29548 13.193 2.63239 13.3768 3.16508L13.7812 4.33699C13.8855 4.6392 13.9377 4.79031 13.8629 4.8952C13.7881 5.0001 13.6283 5.0001 13.3086 5.0001H4.60808ZM1.73798 7.77455C1.42924 7.62018 1.05382 7.74532 0.899453 8.05406C0.745085 8.36279 0.870225 8.73821 1.17896 8.89258L2.42896 9.51758C2.7377 9.67195 3.11312 9.54681 3.26749 9.23807C3.42186 8.92934 3.29672 8.55392 2.98798 8.39955L1.73798 7.77455ZM16.738 8.89258C17.0467 8.73821 17.1719 8.36279 17.0175 8.05406C16.8631 7.74532 16.4877 7.62018 16.179 7.77455L14.929 8.39955C14.6202 8.55392 14.4951 8.92934 14.6495 9.23807C14.8038 9.54681 15.1792 9.67195 15.488 9.51758L16.738 8.89258ZM9.76603 10.6251H8.15119C7.33143 10.6251 6.92156 10.6251 6.60412 10.853C6.35774 11.0299 6.21089 11.3127 6.01514 11.8078C5.92916 12.0253 5.88616 12.134 5.93563 12.2129C5.98509 12.2918 6.09751 12.2918 6.32235 12.2918H11.5949C11.8197 12.2918 11.9321 12.2918 11.9816 12.2129C12.0311 12.134 11.9881 12.0253 11.9021 11.8078C11.7063 11.3127 11.5595 11.0299 11.3131 10.853C10.9957 10.6251 10.5858 10.6251 9.76603 10.6251Z" fill="#24A79C"/>
</svg>
