<svg width="20" height="18" viewBox="0 0 20 18" fill="none" xmlns="http://www.w3.org/2000/svg">
<path d="M11.8369 0C12.5533 -1.12866e-05 13.1413 -0.000297171 13.625 0.046875C14.1316 0.0962851 14.5781 0.201938 15.001 0.443359C15.4239 0.684834 15.7399 1.01511 16.0371 1.4248C16.3208 1.81587 16.6157 2.31975 16.9746 2.93359L18.7988 6.05371C19.1589 6.66963 19.4545 7.17538 19.6563 7.61523C19.8677 8.07622 20 8.51421 20 9C20 9.48579 19.8677 9.92378 19.6563 10.3848C19.4544 10.8247 19.1581 11.3311 18.7979 11.9473L16.9746 15.0664C16.6157 15.6802 16.3208 16.1841 16.0371 16.5752C15.7399 16.9849 15.4239 17.3152 15.001 17.5566C14.5781 17.7981 14.1316 17.9037 13.625 17.9531C13.1413 18.0003 12.5533 18 11.8369 18H8.16406C7.4477 18 6.85973 18.0003 6.37598 17.9531C5.86931 17.9037 5.4219 17.7981 4.99902 17.5566C4.57632 17.3152 4.26097 16.9847 3.96387 16.5752C3.68015 16.1841 3.38528 15.6803 3.02637 15.0664L1.20215 11.9473C0.841908 11.3311 0.546579 10.8247 0.344727 10.3848C0.133281 9.92378 0 9.48579 0 9C1.73384e-07 8.5142 0.133281 8.07622 0.344727 7.61523C0.546579 7.17526 0.841909 6.66887 1.20215 6.05273L3.02637 2.93359C3.38528 2.31968 3.68015 1.81588 3.96387 1.4248C4.26097 1.01527 4.57632 0.684809 4.99902 0.443359C5.4219 0.201928 5.86931 0.0962824 6.37598 0.046875C6.85972 -0.000277227 7.44772 -1.15067e-05 8.16406 0L11.8369 0ZM10 6.08301C8.38917 6.08301 7.08301 7.38917 7.08301 9C7.08301 10.6108 8.38917 11.917 10 11.917C11.6108 11.917 12.917 10.6108 12.917 9C12.917 7.38917 11.6108 6.08301 10 6.08301Z" fill="#24A79C" fill-opacity="0.4"/>
</svg>
