<svg width="22" height="14" viewBox="0 0 22 14" fill="none" xmlns="http://www.w3.org/2000/svg">
<path d="M12.9 5.34216V1.18446C12.9 0.247781 12.7375 0.0594623 11.8461 0.0594623L9.31982 0.000116213C8.53342 0.000116213 8.14022 0.000116224 7.98129 0.266891C7.82236 0.533667 7.99821 0.898519 8.3499 1.62822C8.54523 2.03351 8.64962 2.32702 8.64962 2.78126V5.77301C8.64962 6.71909 8.64962 7.19213 8.30613 7.3325C7.96265 7.47286 7.6772 7.15529 7.10629 6.52015C5.70699 4.96341 4.97871 3.01986 4.49996 0.901559C4.40081 0.462844 4.35123 0.243487 4.20326 0.121802C4.05528 0.000116216 3.84452 0.000116213 3.42301 0.000116213H1.05879C0.540104 0.000116213 0.280759 0.000116224 0.118757 0.192036C-0.0432457 0.383956 -0.0118351 0.628766 0.0509859 1.11838C0.617771 5.53583 4.3301 12.7795 11.188 13.4705C12.4025 13.5929 12.9 13.2493 12.9 11.8566C12.9 11.0671 12.884 9.79076 13.8333 9.62352C14.3304 9.53596 14.6652 9.72068 15.2213 10.2088C16.1847 11.0543 16.6891 12.0864 17.0406 12.8708C17.2738 13.3912 17.4471 13.5001 17.995 13.5001H20.2248C21.3514 13.5001 21.6584 13.2123 21.1566 12.1057C20.5212 10.7045 19.617 9.59143 18.7949 8.85037C18.1121 8.23489 17.7707 7.92714 17.7516 7.70064C17.7325 7.47414 17.983 7.15344 18.484 6.51206C19.4519 5.273 20.7692 3.32754 21.3841 1.26318C21.6888 0.240497 21.4021 0.000116213 20.4121 0.000116213H18.4093C17.4391 0.000116213 17.4397 -0.0350259 17.2107 1.1169C16.839 2.98606 15.6216 4.78255 14.478 6.0055C13.9355 6.58563 13.6075 6.93504 13.269 6.79268C12.9305 6.65033 12.9 6.21427 12.9 5.34216Z" fill="#24A79C"/>
</svg>
