<svg width="22" height="20" viewBox="0 0 22 20" fill="none" xmlns="http://www.w3.org/2000/svg">
<path d="M13.4541 17.3845L13.4541 17.3845L10.7942 14.3603C9.47737 12.8632 9.32144 12.2052 9.40807 12.0634L10.4064 11.2594L14.4527 8.09445C14.779 7.83925 14.8366 7.36789 14.5814 7.04162C14.3262 6.71536 13.8548 6.65775 13.5285 6.91295L9.47799 10.0811L8.25989 11.0754C7.97553 11.3805 7.79418 11.9025 7.99197 12.6446C8.17654 13.3372 8.69427 14.2526 9.79664 15.5094L9.38949 16.3122C9.12655 16.6778 8.8824 17.0171 8.65771 17.2497C8.43445 17.4809 8.02877 17.8206 7.46374 17.7081C6.90614 17.5972 6.65592 17.1362 6.53203 16.8404C6.40621 16.5399 6.29964 16.1325 6.18402 15.6904L5.68252 13.7739C5.40396 12.7094 5.30777 12.4035 5.12651 12.1783C5.10363 12.1498 5.0798 12.1224 5.05509 12.0959C4.86372 11.891 4.59345 11.7649 3.6035 11.3681L3.54927 11.3463C2.57368 10.9553 1.77006 10.6332 1.20798 10.3167C0.66344 10.0101 0.0754015 9.5644 0.00775277 8.81234C-0.00276113 8.69545 -0.00258089 8.57782 0.00829142 8.46097C0.0782537 7.70904 0.667753 7.26519 1.21325 6.9604C1.77632 6.64579 2.58094 6.32635 3.55773 5.93857L15.5418 1.18055C16.7677 0.693818 17.77 0.295822 18.5576 0.114371C19.3606 -0.0706242 20.1901 -0.0902091 20.8401 0.511035C21.4773 1.10042 21.5536 1.9307 21.4742 2.7675C21.3954 3.59773 21.1364 4.67745 20.8169 6.00933L18.3972 16.0964L18.3972 16.0964C18.1936 16.9454 18.0217 17.6621 17.8155 18.1822C17.6073 18.7075 17.2733 19.2717 16.5984 19.4501C15.9154 19.6308 15.3509 19.294 14.9219 18.931C14.5005 18.5743 14.0199 18.0279 13.4541 17.3845Z" fill="#24A79C"/>
</svg>
