<svg xmlns="http://www.w3.org/2000/svg" width="22" height="21" viewBox="0 0 22 21" fill="none">
  <path d="M4.07171 7.93293C6.48539 3.66199 7.69222 1.52651 9.34826 0.97681C10.2593 0.674397 11.2407 0.674397 12.1517 0.97681C13.8078 1.52651 15.0146 3.66199 17.4283 7.93293C19.842 12.2039 21.0488 14.3393 20.6868 16.0793C20.4876 17.0366 19.9969 17.9049 19.285 18.5597C17.991 19.75 15.5774 19.75 10.75 19.75C5.92265 19.75 3.50897 19.75 2.21496 18.5597C1.50308 17.9049 1.01239 17.0366 0.813223 16.0793C0.451194 14.3393 1.65803 12.2039 4.07171 7.93293Z" stroke="currentColor" stroke-width="1.5"/>
  <path d="M10.742 14.25H10.751" stroke="currentColor" stroke-width="2" stroke-linecap="round" stroke-linejoin="round"/>
  <path d="M10.75 11.25L10.75 7.25" stroke="currentColor" stroke-width="1.5" stroke-linecap="round" stroke-linejoin="round"/>
</svg>

