<svg width="15" height="15" viewBox="0 0 15 15" fill="none" xmlns="http://www.w3.org/2000/svg">
<path fill-rule="evenodd" clip-rule="evenodd" d="M6.9684 0.00112134C8.93483 -0.046985 10.4282 1.45934 10.4994 3.25148C10.5159 3.66536 10.1937 4.01422 9.7798 4.03067C9.36591 4.04712 9.01706 3.72493 9.00061 3.31105C8.96143 2.32528 8.13983 1.47291 7.00509 1.50067C6.76355 1.50658 6.43299 1.59343 5.49196 1.85886C3.40805 2.44666 1.9287 3.34493 1.56816 5.1832C1.50342 5.51329 1.50001 5.89686 1.50001 6.87206V8.12795C1.50001 9.10315 1.50342 9.48672 1.56816 9.81682C1.9287 11.6551 3.40805 12.5534 5.49196 13.1412C6.43298 13.4066 6.76355 13.4934 7.00509 13.4993C8.13983 13.5271 8.96143 12.6747 9.00061 11.689C9.01705 11.2751 9.36591 10.9529 9.7798 10.9693C10.1937 10.9858 10.5159 11.3346 10.4994 11.7485C10.4282 13.5407 8.93484 15.047 6.9684 14.9989C6.51129 14.9877 5.98048 14.8378 5.20316 14.6182C5.16431 14.6073 5.12485 14.5961 5.08475 14.5848C2.8764 13.9619 0.629659 12.8254 0.0962021 10.1055C-0.000164732 9.61417 -9.85664e-05 9.07461 6.84442e-06 8.21532C1.03313e-05 8.18656 1.39076e-05 8.15744 1.39076e-05 8.12795L1.39523e-05 6.87206C1.39523e-05 6.84258 1.04207e-05 6.81346 6.93383e-06 6.7847C-9.8477e-05 5.9254 -0.000164554 5.38585 0.0962023 4.8945C0.629659 2.17457 2.8764 1.03809 5.08475 0.415192C5.12485 0.40388 5.16432 0.392734 5.20317 0.381762C5.98049 0.16222 6.51129 0.0123041 6.9684 0.00112134Z" fill="#EB281E"/>
<path d="M5.625 8.25439C5.21079 8.25439 4.875 7.91861 4.875 7.50439C4.875 7.09018 5.21079 6.75439 5.625 6.75439L11.25 6.75439L11.25 6.3087C11.2499 6.17697 11.2498 6.01523 11.2664 5.8829L11.2667 5.88039C11.2785 5.78556 11.3324 5.35353 11.7566 5.14776C12.1817 4.94154 12.5568 5.16799 12.6379 5.21698L12.9893 5.47134C13.2712 5.69231 13.657 5.99658 13.9503 6.28191C14.0966 6.42428 14.2475 6.58723 14.3667 6.76041C14.4726 6.91435 14.625 7.177 14.625 7.5C14.625 7.823 14.4726 8.08565 14.3667 8.23959C14.2475 8.41277 14.0966 8.57572 13.9503 8.71809C13.657 9.00341 13.2712 9.30769 12.9893 9.52866L12.6379 9.78302C12.5568 9.83201 12.1817 10.0585 11.7566 9.85224C11.3324 9.64647 11.2785 9.21444 11.2667 9.1196L11.2664 9.11709C11.2498 8.98477 11.2499 8.82302 11.25 8.6913L11.25 8.25439L5.625 8.25439Z" fill="#EB281E"/>
</svg>
