<svg width="15" height="18" viewBox="0 0 15 18" fill="none" xmlns="http://www.w3.org/2000/svg">
<path d="M0.5 13.8174V6.92294C0.5 3.89514 0.5 2.38124 1.47631 1.44062C2.45262 0.5 4.02397 0.5 7.16667 0.5C10.3094 0.5 11.8807 0.5 12.857 1.44062C13.8333 2.38124 13.8333 3.89514 13.8333 6.92294V13.8174C13.8333 15.7389 13.8333 16.6997 13.1893 17.0436C11.9421 17.7095 9.60267 15.4877 8.49166 14.8187C7.84733 14.4307 7.52516 14.2367 7.16667 14.2367C6.80817 14.2367 6.486 14.4307 5.84167 14.8187C4.73066 15.4877 2.39122 17.7095 1.14404 17.0436C0.5 16.6997 0.5 15.7389 0.5 13.8174Z" fill="#24A79C" stroke="#24A79C" stroke-linecap="round" stroke-linejoin="round"/>
</svg>
