<svg width="40" height="40" viewBox="0 0 40 40" fill="none" xmlns="http://www.w3.org/2000/svg">
<rect width="40" height="40" rx="20" fill="#24A79C"/>
<path d="M15.416 28.25L15.416 25.5" stroke="white" stroke-width="1.5" stroke-linecap="round" stroke-linejoin="round"/>
<path d="M24.583 28.25L24.583 22.75" stroke="white" stroke-width="1.5" stroke-linecap="round" stroke-linejoin="round"/>
<path d="M24.583 14.5L24.583 11.75" stroke="white" stroke-width="1.5" stroke-linecap="round" stroke-linejoin="round"/>
<path d="M15.416 17.25L15.416 11.75" stroke="white" stroke-width="1.5" stroke-linecap="round" stroke-linejoin="round"/>
<path d="M15.416 25.5C14.5618 25.5 14.1347 25.5 13.7978 25.3604C13.3485 25.1744 12.9916 24.8175 12.8056 24.3683C12.666 24.0313 12.666 23.6042 12.666 22.75C12.666 21.8958 12.666 21.4687 12.8056 21.1317C12.9916 20.6825 13.3485 20.3256 13.7978 20.1396C14.1347 20 14.5618 20 15.416 20C16.2702 20 16.6974 20 17.0343 20.1396C17.4835 20.3256 17.8404 20.6825 18.0265 21.1317C18.166 21.4687 18.166 21.8958 18.166 22.75C18.166 23.6042 18.166 24.0313 18.0265 24.3683C17.8404 24.8175 17.4835 25.1744 17.0343 25.3604C16.6974 25.5 16.2702 25.5 15.416 25.5Z" fill="white" stroke="white" stroke-width="1.5"/>
<path d="M24.583 20C23.7288 20 23.3017 20 22.9648 19.8604C22.5155 19.6744 22.1586 19.3175 21.9726 18.8683C21.833 18.5313 21.833 18.1042 21.833 17.25C21.833 16.3958 21.833 15.9687 21.9726 15.6317C22.1586 15.1825 22.5155 14.8256 22.9648 14.6396C23.3017 14.5 23.7288 14.5 24.583 14.5C25.4372 14.5 25.8643 14.5 26.2013 14.6396C26.6505 14.8256 27.0074 15.1825 27.1935 15.6317C27.333 15.9687 27.333 16.3958 27.333 17.25C27.333 18.1042 27.333 18.5313 27.1935 18.8683C27.0074 19.3175 26.6505 19.6744 26.2013 19.8604C25.8643 20 25.4372 20 24.583 20Z" fill="white" stroke="white" stroke-width="1.5"/>
</svg>
