<svg xmlns="http://www.w3.org/2000/svg" width="22" height="22" viewBox="0 0 22 22" fill="none">
  <path d="M6.41602 19.25L6.41602 16.5" stroke="white" stroke-width="1.5" stroke-linecap="round" stroke-linejoin="round"/>
  <path d="M15.583 19.25L15.583 13.75" stroke="white" stroke-width="1.5" stroke-linecap="round" stroke-linejoin="round"/>
  <path d="M15.583 5.5L15.583 2.75" stroke="white" stroke-width="1.5" stroke-linecap="round" stroke-linejoin="round"/>
  <path d="M6.41602 8.25L6.41602 2.75" stroke="white" stroke-width="1.5" stroke-linecap="round" stroke-linejoin="round"/>
  <path d="M6.41602 16.5C5.56179 16.5 5.13468 16.5 4.79776 16.3604C4.34854 16.1744 3.99164 15.8175 3.80557 15.3683C3.66602 15.0313 3.66602 14.6042 3.66602 13.75C3.66602 12.8958 3.66602 12.4687 3.80557 12.1317C3.99164 11.6825 4.34854 11.3256 4.79776 11.1396C5.13468 11 5.56179 11 6.41602 11C7.27024 11 7.69736 11 8.03427 11.1396C8.48349 11.3256 8.84039 11.6825 9.02646 12.1317C9.16602 12.4687 9.16602 12.8958 9.16602 13.75C9.16602 14.6042 9.16602 15.0313 9.02646 15.3683C8.84039 15.8175 8.48349 16.1744 8.03427 16.3604C7.69736 16.5 7.27024 16.5 6.41602 16.5Z" fill="white" stroke="white" stroke-width="1.5"/>
  <path d="M15.583 11C14.7288 11 14.3017 11 13.9648 10.8604C13.5155 10.6744 13.1586 10.3175 12.9726 9.86825C12.833 9.53134 12.833 9.10423 12.833 8.25C12.833 7.39577 12.833 6.96866 12.9726 6.63175C13.1586 6.18253 13.5155 5.82563 13.9648 5.63955C14.3017 5.5 14.7288 5.5 15.583 5.5C16.4372 5.5 16.8643 5.5 17.2013 5.63955C17.6505 5.82563 18.0074 6.18253 18.1935 6.63175C18.333 6.96866 18.333 7.39577 18.333 8.25C18.333 9.10423 18.333 9.53134 18.1935 9.86825C18.0074 10.3175 17.6505 10.6744 17.2013 10.8604C16.8643 11 16.4372 11 15.583 11Z" fill="white" stroke="white" stroke-width="1.5"/>
</svg>

