<svg width="75" height="75" viewBox="0 0 75 75" fill="none" xmlns="http://www.w3.org/2000/svg">
<path fill-rule="evenodd" clip-rule="evenodd" d="M19.2488 0.0236793C30.9298 -0.0235356 42.6187 0.0158101 54.3076 0.00794099C58.4428 0.0708942 62.8222 0.173193 66.5242 2.26639C70.6515 4.46975 73.621 8.64827 74.4402 13.2439C74.9443 15.9823 75.0073 18.7916 74.9994 21.5694C74.9836 33.019 75.023 44.4687 74.9758 55.9262C74.9364 60.4352 74.2118 65.2275 71.2186 68.7922C67.9971 72.9786 62.6253 74.8515 57.474 74.8908C47.7227 75.1033 37.9636 74.9302 28.2045 74.9852C23.4628 74.9144 18.6975 75.2213 13.9873 74.5446C9.00927 73.86 4.34632 70.7438 2.11724 66.2033C-0.0251963 62.2293 0.0299456 57.5708 0.00631585 53.1877C0.0378222 41.5964 -0.0488239 30.0052 0.0456952 18.4218C0.0456952 13.3934 1.41622 8.03448 5.28363 4.57205C8.94625 0.95224 14.2866 0.0158101 19.2488 0.0236793Z" fill="url(#paint0_linear_891_11167)"/>
<g filter="url(#filter0_f_891_11167)">
<path d="M52.333 4.74805V4.74902C55.9986 4.80483 59.7735 4.9 62.9521 6.69727L62.959 6.70117C66.5062 8.59485 69.0645 12.1924 69.7695 16.1475V16.1494C70.1535 18.2352 70.2448 20.3737 70.2568 22.5166L70.2578 23.4355C70.2439 33.5456 70.279 43.6496 70.2373 53.7637C70.2027 57.7228 69.5632 61.8508 67.001 64.9023L66.9961 64.9072L66.9922 64.9131C64.2328 68.499 59.608 70.1279 55.1309 70.1621H55.126C46.5209 70.3496 37.9225 70.1955 29.2959 70.2441C25.0738 70.1812 20.9201 70.4525 16.792 69.8594H16.79C12.6334 69.2877 8.73883 66.748 6.76074 63.0479L6.5752 62.6865L6.56934 62.6748L6.40234 62.3525C4.73036 59.0075 4.76737 55.1215 4.74707 51.3506C4.7749 41.1118 4.69878 30.8861 4.78223 20.6602V20.6572C4.78228 16.2674 5.98067 11.6531 9.29102 8.68945L9.30273 8.67773C12.4365 5.5806 17.034 4.75584 21.3867 4.7627H21.3887C31.6985 4.72102 42.0136 4.75498 52.333 4.74805Z" stroke="#EEFFFE" stroke-opacity="0.8" stroke-width="0.694444"/>
</g>
<g filter="url(#filter1_f_891_11167)">
<path d="M34.7158 6.00586H40.2822V4.39648C40.3311 4.39652 40.3799 4.39645 40.4287 4.39648V6.00586H45.9951V4.39844C46.0439 4.39846 46.0928 4.39841 46.1416 4.39844V6.00586H51.708V4.40039C51.7568 4.40037 51.8057 4.40042 51.8545 4.40039V6.00586H57.4209V4.66797C57.4698 4.67396 57.5185 4.68121 57.5674 4.6875V6.00586H62.3672C62.467 6.0532 62.5662 6.10208 62.665 6.15234H57.5674V11.7188H63.1338V6.40137C63.183 6.42771 63.2314 6.45545 63.2803 6.48242V11.7188H68.5234C68.551 11.7673 68.5775 11.8164 68.6045 11.8652H63.2803V17.4316H68.8467V12.3232C68.8967 12.4223 68.9455 12.5219 68.9932 12.6221V17.4316H70.3184C70.3246 17.4804 70.3299 17.5293 70.3359 17.5781H68.9932V23.1445H70.6035C70.6035 23.1934 70.6036 23.2422 70.6035 23.291H68.9932V28.8574H70.6035C70.6035 28.9062 70.6035 28.9551 70.6035 29.0039H68.9932V34.5703H70.6035C70.6035 34.6191 70.6035 34.668 70.6035 34.7168H68.9932V40.2832H70.6035C70.6035 40.332 70.6035 40.3809 70.6035 40.4297H68.9932V45.9961H70.6016C70.6015 46.0449 70.6016 46.0938 70.6016 46.1426H68.9932V51.709H70.5879C70.5877 51.7578 70.5881 51.8066 70.5879 51.8555H68.9932V57.4219H70.3438C70.3373 57.4707 70.331 57.5196 70.3242 57.5684H68.9932V62.3691C68.9456 62.4729 68.8969 62.5761 68.8467 62.6787V57.5684H63.2803V63.1348H68.6113C68.585 63.1836 68.5592 63.2328 68.5322 63.2812H63.2803V68.4941C63.2316 68.5209 63.1827 68.5471 63.1338 68.5732V63.2812H57.5674V68.8477H62.5996C62.4958 68.8978 62.3912 68.9464 62.2861 68.9941H57.5674V70.333C57.5186 70.3397 57.4697 70.3462 57.4209 70.3525V68.9941H51.8545V70.5645C51.8057 70.5651 51.7568 70.5648 51.708 70.5654V68.9941H46.1416V70.6025C46.0928 70.6026 46.0439 70.6034 45.9951 70.6035V68.9941H40.4287V70.5977C40.3799 70.5975 40.3311 70.5968 40.2822 70.5967V68.9941H34.7158V70.584C34.667 70.5839 34.6182 70.584 34.5693 70.584V68.9941H29.0029V70.5898C28.9541 70.5893 28.9053 70.5893 28.8564 70.5889V68.9941H23.29V70.5986C23.2412 70.5984 23.1924 70.5989 23.1436 70.5986V68.9941H17.5771V70.3115C17.5283 70.3058 17.4795 70.2989 17.4307 70.293V68.9941H12.6738C12.5715 68.9462 12.4693 68.898 12.3682 68.8477H17.4307V63.2812H11.8643V68.582C11.8154 68.5553 11.7663 68.5293 11.7178 68.502V63.2812H6.49219C6.46579 63.2326 6.43982 63.1838 6.41406 63.1348H11.7178V57.5684H6.15137V62.625C6.10111 62.5271 6.05227 62.4288 6.00488 62.3301V57.5684H4.67383C4.66743 57.5195 4.66039 57.4708 4.6543 57.4219H6.00488V51.8555H4.40234C4.40211 51.8066 4.4016 51.7578 4.40137 51.709H6.00488V46.1426H4.40234C4.40234 46.0938 4.40235 46.0449 4.40234 45.9961H6.00488V40.4297H4.40039C4.40033 40.3809 4.40045 40.332 4.40039 40.2832H6.00488V34.7168H4.39551C4.39547 34.668 4.39554 34.6191 4.39551 34.5703H6.00488V29.0039H4.39746C4.39754 28.9551 4.39738 28.9062 4.39746 28.8574H6.00488V23.291H4.41699C4.41727 23.2422 4.41769 23.1934 4.41797 23.1445H6.00488V17.5781H4.6377C4.64434 17.5293 4.65121 17.4805 4.6582 17.4316H6.00488V12.6699C6.0525 12.5648 6.10131 12.4603 6.15137 12.3564V17.4316H11.7178V11.8652H6.39941C6.42537 11.8163 6.451 11.7673 6.47754 11.7188H11.7178V6.46191C11.7662 6.43541 11.8155 6.41065 11.8643 6.38477V11.7188H17.4307V6.15234H12.3232C12.4274 6.10208 12.5323 6.05352 12.6377 6.00586H17.4307V4.67383C17.4794 4.66692 17.5284 4.66187 17.5771 4.65527V6.00586H23.1436V4.41016C23.1924 4.41 23.2412 4.41031 23.29 4.41016V6.00586H28.8564V4.39648C28.9053 4.39643 28.9541 4.39654 29.0029 4.39648V6.00586H34.5693V4.39551C34.6182 4.39552 34.667 4.3955 34.7158 4.39551V6.00586ZM17.5771 68.8477H23.1436V63.2812H17.5771V68.8477ZM23.29 68.8477H28.8564V63.2812H23.29V68.8477ZM29.0029 68.8477H34.5693V63.2812H29.0029V68.8477ZM34.7158 68.8477H40.2822V63.2812H34.7158V68.8477ZM40.4287 68.8477H45.9951V63.2812H40.4287V68.8477ZM46.1416 68.8477H51.708V63.2812H46.1416V68.8477ZM51.8545 68.8477H57.4209V63.2812H51.8545V68.8477ZM11.8643 63.1348H17.4307V57.5684H11.8643V63.1348ZM17.5771 63.1348H23.1436V57.5684H17.5771V63.1348ZM23.29 63.1348H28.8564V57.5684H23.29V63.1348ZM29.0029 63.1348H34.5693V57.5684H29.0029V63.1348ZM34.7158 63.1348H40.2822V57.5684H34.7158V63.1348ZM40.4287 63.1348H45.9951V57.5684H40.4287V63.1348ZM46.1416 63.1348H51.708V57.5684H46.1416V63.1348ZM51.8545 63.1348H57.4209V57.5684H51.8545V63.1348ZM57.5674 63.1348H63.1338V57.5684H57.5674V63.1348ZM6.15137 57.4219H11.7178V51.8555H6.15137V57.4219ZM11.8643 57.4219H17.4307V51.8555H11.8643V57.4219ZM17.5771 57.4219H23.1436V51.8555H17.5771V57.4219ZM23.29 57.4219H28.8564V51.8555H23.29V57.4219ZM29.0029 57.4219H34.5693V51.8555H29.0029V57.4219ZM34.7158 57.4219H40.2822V51.8555H34.7158V57.4219ZM40.4287 57.4219H45.9951V51.8555H40.4287V57.4219ZM46.1416 57.4219H51.708V51.8555H46.1416V57.4219ZM51.8545 57.4219H57.4209V51.8555H51.8545V57.4219ZM57.5674 57.4219H63.1338V51.8555H57.5674V57.4219ZM63.2803 57.4219H68.8467V51.8555H63.2803V57.4219ZM6.15137 51.709H11.7178V46.1426H6.15137V51.709ZM11.8643 51.709H17.4307V46.1426H11.8643V51.709ZM17.5771 51.709H23.1436V46.1426H17.5771V51.709ZM23.29 51.709H28.8564V46.1426H23.29V51.709ZM29.0029 51.709H34.5693V46.1426H29.0029V51.709ZM34.7158 51.709H40.2822V46.1426H34.7158V51.709ZM40.4287 51.709H45.9951V46.1426H40.4287V51.709ZM46.1416 51.709H51.708V46.1426H46.1416V51.709ZM51.8545 51.709H57.4209V46.1426H51.8545V51.709ZM57.5674 51.709H63.1338V46.1426H57.5674V51.709ZM63.2803 51.709H68.8467V46.1426H63.2803V51.709ZM6.15137 45.9961H11.7178V40.4297H6.15137V45.9961ZM11.8643 45.9961H17.4307V40.4297H11.8643V45.9961ZM17.5771 45.9961H23.1436V40.4297H17.5771V45.9961ZM23.29 45.9961H28.8564V40.4297H23.29V45.9961ZM29.0029 45.9961H34.5693V40.4297H29.0029V45.9961ZM34.7158 45.9961H40.2822V40.4297H34.7158V45.9961ZM40.4287 45.9961H45.9951V40.4297H40.4287V45.9961ZM46.1416 45.9961H51.708V40.4297H46.1416V45.9961ZM51.8545 45.9961H57.4209V40.4297H51.8545V45.9961ZM57.5674 45.9961H63.1338V40.4297H57.5674V45.9961ZM63.2803 45.9961H68.8467V40.4297H63.2803V45.9961ZM6.15137 40.2832H11.7178V34.7168H6.15137V40.2832ZM11.8643 40.2832H17.4307V34.7168H11.8643V40.2832ZM17.5771 40.2832H23.1436V34.7168H17.5771V40.2832ZM23.29 40.2832H28.8564V34.7168H23.29V40.2832ZM29.0029 40.2832H34.5693V34.7168H29.0029V40.2832ZM34.7158 40.2832H40.2822V34.7168H34.7158V40.2832ZM40.4287 40.2832H45.9951V34.7168H40.4287V40.2832ZM46.1416 40.2832H51.708V34.7168H46.1416V40.2832ZM51.8545 40.2832H57.4209V34.7168H51.8545V40.2832ZM57.5674 40.2832H63.1338V34.7168H57.5674V40.2832ZM63.2803 40.2832H68.8467V34.7168H63.2803V40.2832ZM6.15137 34.5703H11.7178V29.0039H6.15137V34.5703ZM11.8643 34.5703H17.4307V29.0039H11.8643V34.5703ZM17.5771 34.5703H23.1436V29.0039H17.5771V34.5703ZM23.29 34.5703H28.8564V29.0039H23.29V34.5703ZM29.0029 34.5703H34.5693V29.0039H29.0029V34.5703ZM34.7158 34.5703H40.2822V29.0039H34.7158V34.5703ZM40.4287 34.5703H45.9951V29.0039H40.4287V34.5703ZM46.1416 34.5703H51.708V29.0039H46.1416V34.5703ZM51.8545 34.5703H57.4209V29.0039H51.8545V34.5703ZM57.5674 34.5703H63.1338V29.0039H57.5674V34.5703ZM63.2803 34.5703H68.8467V29.0039H63.2803V34.5703ZM6.15137 28.8574H11.7178V23.291H6.15137V28.8574ZM11.8643 28.8574H17.4307V23.291H11.8643V28.8574ZM17.5771 28.8574H23.1436V23.291H17.5771V28.8574ZM23.29 28.8574H28.8564V23.291H23.29V28.8574ZM29.0029 28.8574H34.5693V23.291H29.0029V28.8574ZM34.7158 28.8574H40.2822V23.291H34.7158V28.8574ZM40.4287 28.8574H45.9951V23.291H40.4287V28.8574ZM46.1416 28.8574H51.708V23.291H46.1416V28.8574ZM51.8545 28.8574H57.4209V23.291H51.8545V28.8574ZM57.5674 28.8574H63.1338V23.291H57.5674V28.8574ZM63.2803 28.8574H68.8467V23.291H63.2803V28.8574ZM6.15137 23.1445H11.7178V17.5781H6.15137V23.1445ZM11.8643 23.1445H17.4307V17.5781H11.8643V23.1445ZM17.5771 23.1445H23.1436V17.5781H17.5771V23.1445ZM23.29 23.1445H28.8564V17.5781H23.29V23.1445ZM29.0029 23.1445H34.5693V17.5781H29.0029V23.1445ZM34.7158 23.1445H40.2822V17.5781H34.7158V23.1445ZM40.4287 23.1445H45.9951V17.5781H40.4287V23.1445ZM46.1416 23.1445H51.708V17.5781H46.1416V23.1445ZM51.8545 23.1445H57.4209V17.5781H51.8545V23.1445ZM57.5674 23.1445H63.1338V17.5781H57.5674V23.1445ZM63.2803 23.1445H68.8467V17.5781H63.2803V23.1445ZM11.8643 17.4316H17.4307V11.8652H11.8643V17.4316ZM17.5771 17.4316H23.1436V11.8652H17.5771V17.4316ZM23.29 17.4316H28.8564V11.8652H23.29V17.4316ZM29.0029 17.4316H34.5693V11.8652H29.0029V17.4316ZM34.7158 17.4316H40.2822V11.8652H34.7158V17.4316ZM40.4287 17.4316H45.9951V11.8652H40.4287V17.4316ZM46.1416 17.4316H51.708V11.8652H46.1416V17.4316ZM51.8545 17.4316H57.4209V11.8652H51.8545V17.4316ZM57.5674 17.4316H63.1338V11.8652H57.5674V17.4316ZM17.5771 11.7188H23.1436V6.15234H17.5771V11.7188ZM23.29 11.7188H28.8564V6.15234H23.29V11.7188ZM29.0029 11.7188H34.5693V6.15234H29.0029V11.7188ZM34.7158 11.7188H40.2822V6.15234H34.7158V11.7188ZM40.4287 11.7188H45.9951V6.15234H40.4287V11.7188ZM46.1416 11.7188H51.708V6.15234H46.1416V11.7188ZM51.8545 11.7188H57.4209V6.15234H51.8545V11.7188Z" fill="#E4FFFD"/>
</g>
<g filter="url(#filter2_n_891_11167)">
<mask id="path-4-inside-1_891_11167" fill="white">
<path d="M43.9984 44.0926C45.9908 44.0297 47.3443 44.9462 48.9086 45.745C51.071 46.848 53.4083 48.0519 56.3324 49.0614C58.0305 49.6466 60.7754 50.9923 63.2777 51.993C65.95 53.0624 68.3726 53.8173 69.8441 55.3709C70.1225 55.6913 70.3209 56.0477 70.4555 56.4247C70.1649 59.5552 69.3223 62.6582 67.2641 65.1053C64.4151 68.8008 59.665 70.4544 55.1098 70.4891C46.4865 70.6767 37.8562 70.5235 29.226 70.5721C25.0327 70.5096 20.8181 70.7809 16.6527 70.1834C12.2507 69.5789 8.12685 66.8275 6.15567 62.8192C4.98014 60.6423 4.55398 58.2326 4.39395 55.7928C7.06564 55.0222 9.35767 54.4031 11.3168 53.6297C16.1309 51.7294 19.0662 49.7415 21.6283 48.2069C26.0287 45.5706 28.7502 44.0811 31.3832 44.2245C34.3843 44.3899 36.3373 46.3674 37.7553 46.3163C39.5022 46.2519 40.0798 44.2156 43.9984 44.0926Z"/>
</mask>
<path d="M43.9984 44.0926C45.9908 44.0297 47.3443 44.9462 48.9086 45.745C51.071 46.848 53.4083 48.0519 56.3324 49.0614C58.0305 49.6466 60.7754 50.9923 63.2777 51.993C65.95 53.0624 68.3726 53.8173 69.8441 55.3709C70.1225 55.6913 70.3209 56.0477 70.4555 56.4247C70.1649 59.5552 69.3223 62.6582 67.2641 65.1053C64.4151 68.8008 59.665 70.4544 55.1098 70.4891C46.4865 70.6767 37.8562 70.5235 29.226 70.5721C25.0327 70.5096 20.8181 70.7809 16.6527 70.1834C12.2507 69.5789 8.12685 66.8275 6.15567 62.8192C4.98014 60.6423 4.55398 58.2326 4.39395 55.7928C7.06564 55.0222 9.35767 54.4031 11.3168 53.6297C16.1309 51.7294 19.0662 49.7415 21.6283 48.2069C26.0287 45.5706 28.7502 44.0811 31.3832 44.2245C34.3843 44.3899 36.3373 46.3674 37.7553 46.3163C39.5022 46.2519 40.0798 44.2156 43.9984 44.0926Z" fill="url(#paint1_linear_891_11167)"/>
<path d="M43.9984 44.0926L44.0202 44.7867L44.0204 44.7867L43.9984 44.0926ZM48.9086 45.745L48.5928 46.3634L48.593 46.3636L48.9086 45.745ZM56.3324 49.0614L56.1058 49.7178L56.1062 49.7179L56.3324 49.0614ZM63.2777 51.993L63.5358 51.3483L63.5356 51.3482L63.2777 51.993ZM69.8441 55.3709L70.3684 54.9155L70.3586 54.9043L70.3483 54.8934L69.8441 55.3709ZM70.4555 56.4247L71.1469 56.4888L71.1611 56.3359L71.1095 56.1912L70.4555 56.4247ZM67.2641 65.1053L66.7326 64.6583L66.7231 64.6696L66.7141 64.6813L67.2641 65.1053ZM55.1098 70.4891L55.1045 69.7946L55.0947 69.7948L55.1098 70.4891ZM29.226 70.5721L29.2156 71.2665L29.2228 71.2666L29.2299 71.2665L29.226 70.5721ZM16.6527 70.1834L16.7513 69.496L16.7472 69.4955L16.6527 70.1834ZM6.15567 62.8192L6.77884 62.5127L6.773 62.5009L6.76671 62.4892L6.15567 62.8192ZM4.39395 55.7928L4.2015 55.1256L3.66441 55.2805L3.701 55.8383L4.39395 55.7928ZM11.3168 53.6297L11.0618 52.9838L11.0618 52.9838L11.3168 53.6297ZM21.6283 48.2069L21.9852 48.8026L21.9852 48.8026L21.6283 48.2069ZM31.3832 44.2245L31.4214 43.5311L31.421 43.531L31.3832 44.2245ZM37.7553 46.3163L37.7803 47.0102L37.7809 47.0102L37.7553 46.3163ZM43.9984 44.0926L44.0204 44.7867C45.7878 44.7309 46.9426 45.5208 48.5928 46.3634L48.9086 45.745L49.2244 45.1265C47.746 44.3716 46.1939 43.3285 43.9765 43.3985L43.9984 44.0926ZM48.9086 45.745L48.593 46.3636C50.7521 47.4649 53.1298 48.6904 56.1058 49.7178L56.3324 49.0614L56.559 48.4049C53.6869 47.4134 51.3899 46.2311 49.2242 45.1264L48.9086 45.745ZM56.3324 49.0614L56.1062 49.7179C56.9224 49.9992 58.0051 50.469 59.2231 51.0067C60.4288 51.5389 61.7545 52.1318 63.0199 52.6378L63.2777 51.993L63.5356 51.3482C62.2987 50.8536 61.0007 50.2732 59.7839 49.7361C58.5794 49.2044 57.4406 48.7087 56.5587 48.4048L56.3324 49.0614ZM63.2777 51.993L63.0197 52.6377C64.3903 53.1862 65.6179 53.6241 66.7211 54.1313C67.8129 54.6333 68.6935 55.1659 69.34 55.8485L69.8441 55.3709L70.3483 54.8934C69.5233 54.0223 68.4568 53.4007 67.3013 52.8694C66.1574 52.3435 64.8375 51.8692 63.5358 51.3483L63.2777 51.993ZM69.8441 55.3709L69.3199 55.8263C69.5368 56.0761 69.6935 56.3555 69.8014 56.6581L70.4555 56.4247L71.1095 56.1912C70.9484 55.7398 70.7081 55.3066 70.3684 54.9155L69.8441 55.3709ZM70.4555 56.4247L69.764 56.3605C69.48 59.4206 68.6628 62.3634 66.7326 64.6583L67.2641 65.1053L67.7955 65.5523C69.9817 62.9531 70.8499 59.6897 71.1469 56.4888L70.4555 56.4247ZM67.2641 65.1053L66.7141 64.6813C64.0344 68.1573 59.5192 69.761 55.1045 69.7947L55.1098 70.4891L55.1151 71.1835C59.8108 71.1477 64.7959 69.4442 67.814 65.5293L67.2641 65.1053ZM55.1098 70.4891L55.0947 69.7948C46.4755 69.9823 37.8773 69.8289 29.2221 69.8777L29.226 70.5721L29.2299 71.2665C37.8351 71.2181 46.4975 71.371 55.1249 71.1834L55.1098 70.4891ZM29.226 70.5721L29.2363 69.8777C24.9689 69.8141 20.8586 70.0851 16.7513 69.496L16.6527 70.1834L16.5541 70.8709C20.7776 71.4766 25.0966 71.2051 29.2156 71.2665L29.226 70.5721ZM16.6527 70.1834L16.7472 69.4955C12.5528 68.9195 8.63913 66.2955 6.77884 62.5127L6.15567 62.8192L5.5325 63.1256C7.61457 67.3594 11.9485 70.2384 16.5583 70.8714L16.6527 70.1834ZM6.15567 62.8192L6.76671 62.4892C5.65941 60.4387 5.24405 58.1431 5.08691 55.7474L4.39395 55.7928L3.701 55.8383C3.86392 58.3221 4.30088 60.846 5.54463 63.1492L6.15567 62.8192ZM4.39395 55.7928L4.5864 56.4601C7.23639 55.6957 9.57304 55.0647 11.5718 54.2757L11.3168 53.6297L11.0618 52.9838C9.1423 53.7415 6.89489 54.3487 4.2015 55.1256L4.39395 55.7928ZM11.3168 53.6297L11.5718 54.2757C16.4519 52.3492 19.4454 50.3239 21.9852 48.8026L21.6283 48.2069L21.2715 47.6111C18.687 49.1592 15.8099 51.1095 11.0618 52.9838L11.3168 53.6297ZM21.6283 48.2069L21.9852 48.8026C24.1902 47.4816 25.9343 46.4729 27.4475 45.8093C28.9534 45.1488 30.1786 44.8543 31.3455 44.9179L31.3832 44.2245L31.421 43.531C29.9549 43.4512 28.5027 43.8298 26.8896 44.5373C25.2837 45.2417 23.4668 46.2959 21.2714 47.6112L21.6283 48.2069ZM31.3832 44.2245L31.345 44.9178C32.7014 44.9926 33.8366 45.4762 34.858 45.9755C35.3508 46.2164 35.8607 46.4835 36.314 46.6743C36.7686 46.8657 37.2708 47.0286 37.7803 47.0102L37.7553 46.3163L37.7302 45.6223C37.5308 45.6295 37.2571 45.5644 36.8529 45.3942C36.4474 45.2235 36.0157 44.9955 35.4679 44.7277C34.408 44.2096 33.0661 43.6217 31.4214 43.5311L31.3832 44.2245ZM37.7553 46.3163L37.7809 47.0102C38.3636 46.9887 38.836 46.7997 39.2556 46.5651C39.624 46.3591 40.0773 46.0359 40.4303 45.8154C41.1998 45.3348 42.206 44.8436 44.0202 44.7867L43.9984 44.0926L43.9767 43.3985C41.8722 43.4645 40.6303 44.053 39.6946 44.6374C39.195 44.9494 38.9314 45.155 38.5778 45.3528C38.2753 45.5219 38.0204 45.6116 37.7297 45.6223L37.7553 46.3163Z" fill="#EEFFFE" fill-opacity="0.8" mask="url(#path-4-inside-1_891_11167)"/>
</g>
<mask id="path-6-inside-2_891_11167" fill="white">
<path d="M37.4375 12.4492C44.4413 12.4494 50.1182 18.1155 50.1182 25.1055C50.1182 28.5992 48.5333 31.6067 46.4062 34.0527C44.2384 36.5456 40.2939 41.1555 37.4375 44.0898C34.9024 41.5548 30.103 36.0331 28.4688 34.0527C26.4055 31.5526 24.7559 28.5992 24.7559 25.1055C24.7559 18.1154 30.4336 12.4492 37.4375 12.4492ZM37.4365 20.7363C35.0095 20.7363 33.042 22.7038 33.042 25.1309C33.0422 27.5577 35.0096 29.5254 37.4365 29.5254C39.8632 29.5252 41.8308 27.5576 41.8311 25.1309C41.8311 22.7039 39.8634 20.7365 37.4365 20.7363Z"/>
</mask>
<path d="M37.4375 12.4492C44.4413 12.4494 50.1182 18.1155 50.1182 25.1055C50.1182 28.5992 48.5333 31.6067 46.4062 34.0527C44.2384 36.5456 40.2939 41.1555 37.4375 44.0898C34.9024 41.5548 30.103 36.0331 28.4688 34.0527C26.4055 31.5526 24.7559 28.5992 24.7559 25.1055C24.7559 18.1154 30.4336 12.4492 37.4375 12.4492ZM37.4365 20.7363C35.0095 20.7363 33.042 22.7038 33.042 25.1309C33.0422 27.5577 35.0096 29.5254 37.4365 29.5254C39.8632 29.5252 41.8308 27.5576 41.8311 25.1309C41.8311 22.7039 39.8634 20.7365 37.4365 20.7363Z" fill="url(#paint2_linear_891_11167)"/>
<path d="M37.4375 12.4492L37.4375 11.7548H37.4375V12.4492ZM50.1182 25.1055H50.8126V25.1055L50.1182 25.1055ZM46.4062 34.0527L46.9303 34.5084L46.9303 34.5084L46.4062 34.0527ZM37.4375 44.0898L36.9465 44.5809L37.4442 45.0786L37.9351 44.5742L37.4375 44.0898ZM28.4688 34.0527L27.9331 34.4947H27.9331L28.4688 34.0527ZM24.7559 25.1055L24.0614 25.1055V25.1055H24.7559ZM37.4365 20.7363L37.4366 20.0419H37.4365V20.7363ZM33.042 25.1309H32.3475V25.1309L33.042 25.1309ZM37.4365 29.5254V30.2198H37.4366L37.4365 29.5254ZM41.8311 25.1309L42.5255 25.1309V25.1309H41.8311ZM37.4375 12.4492L37.4375 13.1437C44.059 13.1438 49.4237 18.5003 49.4237 25.1055L50.1182 25.1055L50.8126 25.1055C50.8126 17.7307 44.8236 11.7549 37.4375 11.7548L37.4375 12.4492ZM50.1182 25.1055H49.4237C49.4237 28.3778 47.9408 31.2298 45.8822 33.597L46.4062 34.0527L46.9303 34.5084C49.1258 31.9836 50.8126 28.8205 50.8126 25.1055H50.1182ZM46.4062 34.0527L45.8822 33.597C43.7051 36.1006 39.7787 40.6892 36.9399 43.6055L37.4375 44.0898L37.9351 44.5742C40.8092 41.6218 44.7717 36.9906 46.9303 34.5084L46.4062 34.0527ZM37.4375 44.0898L37.9285 43.5988C35.4166 41.0868 30.6335 35.5848 29.0044 33.6107L28.4688 34.0527L27.9331 34.4947C29.5726 36.4813 34.3883 42.0227 36.9465 44.5809L37.4375 44.0898ZM28.4688 34.0527L29.0044 33.6107C26.9894 31.1691 25.4503 28.3693 25.4503 25.1055H24.7559H24.0614C24.0614 28.8292 25.8216 31.9361 27.9331 34.4947L28.4688 34.0527ZM24.7559 25.1055L25.4503 25.1055C25.4503 18.5003 30.8158 13.1437 37.4375 13.1437V12.4492V11.7548C30.0514 11.7548 24.0614 17.7306 24.0614 25.1055L24.7559 25.1055ZM37.4365 20.7363V20.0419C34.626 20.0419 32.3475 22.3203 32.3475 25.1309H33.042H33.7364C33.7364 23.0873 35.393 21.4308 37.4365 21.4308V20.7363ZM33.042 25.1309L32.3475 25.1309C32.3478 27.9412 34.626 30.2198 37.4365 30.2198V29.5254V28.8309C35.3932 28.8309 33.7366 27.1742 33.7364 25.1308L33.042 25.1309ZM37.4365 29.5254L37.4366 30.2198C40.2468 30.2196 42.5252 27.9411 42.5255 25.1309L41.8311 25.1309L41.1366 25.1308C41.1364 27.174 39.4797 28.8308 37.4365 28.8309L37.4365 29.5254ZM41.8311 25.1309H42.5255C42.5255 22.3203 40.2469 20.0421 37.4366 20.0419L37.4365 20.7363L37.4365 21.4308C39.4799 21.4309 41.1366 23.0875 41.1366 25.1309H41.8311Z" fill="#EEFFFE" fill-opacity="0.8" mask="url(#path-6-inside-2_891_11167)"/>
<path d="M29.825 8.5918H29.6463V7.74035H29.3461V7.58882H30.1245V7.74035H29.825V8.5918ZM30.9963 7.73409V8.07676H31.1985C31.3125 8.07676 31.3786 8.01351 31.3786 7.90508C31.3786 7.79943 31.3084 7.73409 31.1951 7.73409H30.9963ZM30.9963 8.21438V8.5918H30.817V7.58882H31.2152C31.4321 7.58882 31.5621 7.70907 31.5621 7.90091C31.5621 8.03366 31.4926 8.14418 31.373 8.18727L31.592 8.5918H31.3876L31.1902 8.21438H30.9963ZM32.7181 7.57214C33.01 7.57214 33.1935 7.77162 33.1935 8.09066C33.1935 8.40969 33.01 8.60848 32.7181 8.60848C32.4255 8.60848 32.242 8.40969 32.242 8.09066C32.242 7.77162 32.4255 7.57214 32.7181 7.57214ZM32.7181 7.72505C32.5388 7.72505 32.4255 7.86685 32.4255 8.09066C32.4255 8.31377 32.5388 8.45556 32.7181 8.45556C32.8967 8.45556 33.0107 8.31377 33.0107 8.09066C33.0107 7.86685 32.8967 7.72505 32.7181 7.72505ZM33.9061 7.58882H34.296C34.4955 7.58882 34.6338 7.72436 34.6338 7.92454C34.6338 8.12472 34.4913 8.26025 34.2884 8.26025H34.0854V8.5918H33.9061V7.58882ZM34.0854 7.73548V8.11568H34.2481C34.3766 8.11568 34.4517 8.04617 34.4517 7.92454C34.4517 7.80429 34.3773 7.73548 34.2488 7.73548H34.0854ZM35.9024 8.5918L35.817 8.33254H35.4479L35.3624 8.5918H35.1775L35.5334 7.58882H35.7356L36.0915 8.5918H35.9024ZM35.63 7.76606L35.4896 8.19422H35.7746L35.6348 7.76606H35.63ZM37.7961 8.5918H37.623V7.58882H37.7787L38.2764 8.29153H38.2826V7.58882H38.455V8.5918H38.3007L37.8023 7.88839H37.7961V8.5918ZM39.8571 8.5918L39.7716 8.33254H39.4025L39.317 8.5918H39.1321L39.488 7.58882H39.6903L40.0461 8.5918H39.8571ZM39.5846 7.76606L39.4442 8.19422H39.7292L39.5895 7.76606H39.5846ZM40.9026 7.73409V8.07676H41.1048C41.2188 8.07676 41.2849 8.01351 41.2849 7.90508C41.2849 7.79943 41.2147 7.73409 41.1014 7.73409H40.9026ZM40.9026 8.21438V8.5918H40.7233V7.58882H41.1215C41.3384 7.58882 41.4684 7.70907 41.4684 7.90091C41.4684 8.03366 41.3989 8.14418 41.2793 8.18727L41.4983 8.5918H41.2939L41.0965 8.21438H40.9026ZM42.6063 8.5918H42.4277V7.74035H42.1274V7.58882H42.9059V7.74035H42.6063V8.5918ZM43.982 7.57214C44.2739 7.57214 44.4574 7.77162 44.4574 8.09066C44.4574 8.40969 44.2739 8.60848 43.982 8.60848C43.6894 8.60848 43.5059 8.40969 43.5059 8.09066C43.5059 7.77162 43.6894 7.57214 43.982 7.57214ZM43.982 7.72505C43.8027 7.72505 43.6894 7.86685 43.6894 8.09066C43.6894 8.31377 43.8027 8.45556 43.982 8.45556C44.1606 8.45556 44.2746 8.31377 44.2746 8.09066C44.2746 7.86685 44.1606 7.72505 43.982 7.72505ZM45.6204 8.5918H45.4147L45.0657 7.58882H45.2631L45.5175 8.39926H45.5217L45.7761 7.58882H45.9693L45.6204 8.5918Z" fill="white" fill-opacity="0.5"/>
<defs>
<filter id="filter0_f_891_11167" x="1.31836" y="1.31836" width="72.3633" height="72.3633" filterUnits="userSpaceOnUse" color-interpolation-filters="sRGB">
<feFlood flood-opacity="0" result="BackgroundImageFix"/>
<feBlend mode="normal" in="SourceGraphic" in2="BackgroundImageFix" result="shape"/>
<feGaussianBlur stdDeviation="0" result="effect1_foregroundBlur_891_11167"/>
</filter>
<filter id="filter1_f_891_11167" x="1.31934" y="1.31934" width="72.3604" height="72.3603" filterUnits="userSpaceOnUse" color-interpolation-filters="sRGB">
<feFlood flood-opacity="0" result="BackgroundImageFix"/>
<feBlend mode="normal" in="SourceGraphic" in2="BackgroundImageFix" result="shape"/>
<feGaussianBlur stdDeviation="0" result="effect1_foregroundBlur_891_11167"/>
</filter>
<filter id="filter2_n_891_11167" x="4.39395" y="44.0895" width="66.0615" height="26.4958" filterUnits="userSpaceOnUse" color-interpolation-filters="sRGB">
<feFlood flood-opacity="0" result="BackgroundImageFix"/>
<feBlend mode="normal" in="SourceGraphic" in2="BackgroundImageFix" result="shape"/>
<feTurbulence type="fractalNoise" baseFrequency="2.8326418399810791 2.8326418399810791" stitchTiles="stitch" numOctaves="3" result="noise" seed="8742" />
<feColorMatrix in="noise" type="luminanceToAlpha" result="alphaNoise" />
<feComponentTransfer in="alphaNoise" result="coloredNoise1">
<feFuncA type="discrete" tableValues="0 0 0 0 0 0 0 0 0 0 0 0 0 0 0 0 0 0 0 1 1 1 1 1 1 1 1 1 1 1 1 1 0 0 0 0 0 0 0 0 0 0 0 0 0 0 0 0 0 0 0 0 0 0 0 0 0 0 0 0 0 0 0 0 0 0 0 0 0 0 0 0 0 0 0 0 0 0 0 0 0 0 0 0 0 0 0 0 0 0 0 0 0 0 0 0 0 0 0 0 "/>
</feComponentTransfer>
<feComposite operator="in" in2="shape" in="coloredNoise1" result="noise1Clipped" />
<feComponentTransfer in="alphaNoise" result="coloredNoise2">
<feFuncA type="discrete" tableValues="0 0 0 0 0 0 0 0 0 0 0 0 0 0 0 0 0 0 0 0 0 0 0 0 0 0 0 0 0 0 0 0 0 0 0 0 0 0 0 0 0 0 0 0 0 0 0 0 0 0 0 0 0 0 0 0 0 0 0 0 0 0 0 0 0 0 0 0 1 1 1 1 1 1 1 1 1 1 1 1 1 0 0 0 0 0 0 0 0 0 0 0 0 0 0 0 0 0 0 0 "/>
</feComponentTransfer>
<feComposite operator="in" in2="shape" in="coloredNoise2" result="noise2Clipped" />
<feFlood flood-color="#32B6AB" result="color1Flood" />
<feComposite operator="in" in2="noise1Clipped" in="color1Flood" result="color1" />
<feFlood flood-color="rgba(255, 255, 255, 0.25)" result="color2Flood" />
<feComposite operator="in" in2="noise2Clipped" in="color2Flood" result="color2" />
<feMerge result="effect1_noise_891_11167">
<feMergeNode in="shape" />
<feMergeNode in="color1" />
<feMergeNode in="color2" />
</feMerge>
</filter>
<linearGradient id="paint0_linear_891_11167" x1="37.5" y1="0" x2="37.5" y2="75" gradientUnits="userSpaceOnUse">
<stop stop-color="#53D8CD"/>
<stop offset="1" stop-color="#24A79C"/>
</linearGradient>
<linearGradient id="paint1_linear_891_11167" x1="37.4247" y1="44.0897" x2="37.4247" y2="70.5855" gradientUnits="userSpaceOnUse">
<stop stop-color="white"/>
<stop offset="1" stop-color="#C5FFFA"/>
</linearGradient>
<linearGradient id="paint2_linear_891_11167" x1="37.437" y1="12.4492" x2="37.437" y2="44.0898" gradientUnits="userSpaceOnUse">
<stop stop-color="white"/>
<stop offset="1" stop-color="#C5FFFA"/>
</linearGradient>
</defs>
</svg>
