<svg width="125" height="125" viewBox="0 0 125 125" fill="none" xmlns="http://www.w3.org/2000/svg">
<g filter="url(#filter0_f_891_11261)">
<path d="M35.6492 7.9375C52.8348 7.86804 70.0286 7.92564 87.2302 7.91406C93.3371 8.00709 99.6251 8.16888 104.921 11.1631L104.933 11.1689C110.845 14.3251 115.108 20.3204 116.283 26.9121L116.284 26.915C117.015 30.8881 117.109 34.9763 117.097 39.0586V39.0596C117.074 55.9097 117.132 72.7495 117.062 89.6064C117.005 96.2049 115.94 103.084 111.67 108.17L111.654 108.189C107.055 114.166 99.3472 116.879 91.8855 116.937H91.8767C77.5358 117.249 63.2066 116.993 48.8298 117.074C41.7921 116.969 34.8681 117.421 27.9871 116.433H27.9841C20.8332 115.449 14.1473 110.97 10.9597 104.478L10.95 104.458L10.6707 103.921C7.8841 98.3459 7.94667 91.8688 7.91284 85.584C7.95923 68.5193 7.83139 51.4768 7.97046 34.4336V34.4287C7.97054 27.1123 9.96787 19.4219 15.4851 14.4824L15.4958 14.4727L15.5056 14.4629C20.7287 9.30085 28.3915 7.926 35.6462 7.9375H35.6492Z" stroke="#EEFFFE" stroke-opacity="0.8" stroke-width="1.15741"/>
</g>
<g filter="url(#filter1_f_891_11261)">
<path d="M57.8588 10.0098H67.1362V7.3291C67.2175 7.32916 67.2989 7.33002 67.3803 7.33008V10.0098H76.6577V7.33496C76.739 7.335 76.8204 7.33492 76.9018 7.33496V10.0098H86.1791V7.33496C86.2605 7.33492 86.3419 7.33501 86.4233 7.33496V10.0098H95.7006V7.77832C95.782 7.78829 95.8635 7.79716 95.9448 7.80762V10.0098H103.947C104.113 10.0886 104.278 10.1702 104.443 10.2539H95.9448V19.5312H105.222V10.6699C105.304 10.7138 105.385 10.7598 105.466 10.8047V19.5312H114.206C114.251 19.6122 114.296 19.6939 114.341 19.7754H105.466V29.0527H114.744V20.5381C114.827 20.7032 114.908 20.8691 114.988 21.0361V29.0527H117.198C117.208 29.134 117.217 29.2155 117.227 29.2969H114.988V38.5742H117.672C117.672 38.6556 117.672 38.737 117.672 38.8184H114.988V48.0957H117.668C117.668 48.1771 117.668 48.2585 117.668 48.3398H114.988V57.6172H117.669C117.669 57.6986 117.669 57.7799 117.669 57.8613H114.988V67.1387H117.671C117.671 67.2201 117.671 67.3014 117.671 67.3828H114.988V76.6602H117.669C117.669 76.7415 117.669 76.8229 117.669 76.9043H114.988V86.1816H117.649C117.649 86.263 117.649 86.3444 117.649 86.4258H114.988V95.7031H117.241C117.23 95.7845 117.22 95.866 117.208 95.9473H114.988V103.948C114.908 104.121 114.827 104.294 114.744 104.465V95.9473H105.466V105.225H114.353C114.309 105.306 114.265 105.388 114.22 105.469H105.466V114.158C105.385 114.203 105.304 114.247 105.222 114.291V105.469H95.9448V114.746H104.332C104.159 114.83 103.985 114.911 103.81 114.99H95.9448V117.222C95.8634 117.233 95.782 117.243 95.7006 117.254V114.99H86.4233V117.607C86.3419 117.608 86.2605 117.609 86.1791 117.61V114.99H76.9018V117.671C76.8204 117.671 76.739 117.671 76.6577 117.671V114.99H67.3803V117.663C67.2989 117.663 67.2175 117.663 67.1362 117.663V114.99H57.8588V117.641C57.7774 117.641 57.6961 117.641 57.6147 117.641V114.99H48.3373V117.648C48.256 117.648 48.1746 117.647 48.0932 117.646V114.99H38.8159V117.665C38.7345 117.665 38.6531 117.665 38.5717 117.664V114.99H29.2944V117.186C29.213 117.176 29.1316 117.166 29.0502 117.156V114.99H21.1235C20.9534 114.911 20.7838 114.83 20.6157 114.746H29.0502V105.469H19.7729V114.304C19.6914 114.259 19.6097 114.215 19.5287 114.169V105.469H10.8198C10.7758 105.388 10.7328 105.306 10.6899 105.225H19.5287V95.9473H10.2514V104.375C10.1676 104.212 10.0863 104.048 10.0073 103.883V95.9473H7.78461C7.77396 95.866 7.76447 95.7845 7.75433 95.7031H10.0073V86.4258H7.33636C7.33597 86.3443 7.3348 86.263 7.33441 86.1816H10.0073V76.9043H7.34125C7.34125 76.8229 7.34125 76.7415 7.34125 76.6602H10.0073V67.3828H7.33441C7.33431 67.3014 7.33354 67.2201 7.33344 67.1387H10.0073V57.8613H7.32465C7.32459 57.7799 7.3247 57.6986 7.32465 57.6172H10.0073V48.3398H7.3266C7.32673 48.2585 7.32647 48.1771 7.3266 48.0957H10.0073V38.8184H7.36176C7.36222 38.737 7.36226 38.6556 7.36273 38.5742H10.0073V29.2969H7.72992C7.74099 29.2155 7.75245 29.1341 7.7641 29.0527H10.0073V21.1162C10.0867 20.9407 10.1678 20.7662 10.2514 20.5928V29.0527H19.5287V19.7754H10.6664C10.7096 19.6941 10.7512 19.612 10.7953 19.5312H19.5287V10.7705C19.6096 10.7262 19.6915 10.6839 19.7729 10.6406V19.5312H29.0502V10.2539H20.5385C20.7116 10.1703 20.8858 10.089 21.061 10.0098H29.0502V7.78711C29.1316 7.77558 29.2129 7.76393 29.2944 7.75293V10.0098H38.5717V7.34961C38.6531 7.34935 38.7345 7.34889 38.8159 7.34863V10.0098H48.0932V7.32812C48.1746 7.32803 48.256 7.32821 48.3373 7.32812V10.0098H57.6147V7.32617C57.6961 7.32619 57.7774 7.32615 57.8588 7.32617V10.0098ZM29.2944 114.746H38.5717V105.469H29.2944V114.746ZM38.8159 114.746H48.0932V105.469H38.8159V114.746ZM48.3373 114.746H57.6147V105.469H48.3373V114.746ZM57.8588 114.746H67.1362V105.469H57.8588V114.746ZM67.3803 114.746H76.6577V105.469H67.3803V114.746ZM76.9018 114.746H86.1791V105.469H76.9018V114.746ZM86.4233 114.746H95.7006V105.469H86.4233V114.746ZM19.7729 105.225H29.0502V95.9473H19.7729V105.225ZM29.2944 105.225H38.5717V95.9473H29.2944V105.225ZM38.8159 105.225H48.0932V95.9473H38.8159V105.225ZM48.3373 105.225H57.6147V95.9473H48.3373V105.225ZM57.8588 105.225H67.1362V95.9473H57.8588V105.225ZM67.3803 105.225H76.6577V95.9473H67.3803V105.225ZM76.9018 105.225H86.1791V95.9473H76.9018V105.225ZM86.4233 105.225H95.7006V95.9473H86.4233V105.225ZM95.9448 105.225H105.222V95.9473H95.9448V105.225ZM10.2514 95.7031H19.5287V86.4258H10.2514V95.7031ZM19.7729 95.7031H29.0502V86.4258H19.7729V95.7031ZM29.2944 95.7031H38.5717V86.4258H29.2944V95.7031ZM38.8159 95.7031H48.0932V86.4258H38.8159V95.7031ZM48.3373 95.7031H57.6147V86.4258H48.3373V95.7031ZM57.8588 95.7031H67.1362V86.4258H57.8588V95.7031ZM67.3803 95.7031H76.6577V86.4258H67.3803V95.7031ZM76.9018 95.7031H86.1791V86.4258H76.9018V95.7031ZM86.4233 95.7031H95.7006V86.4258H86.4233V95.7031ZM95.9448 95.7031H105.222V86.4258H95.9448V95.7031ZM105.466 95.7031H114.744V86.4258H105.466V95.7031ZM10.2514 86.1816H19.5287V76.9043H10.2514V86.1816ZM19.7729 86.1816H29.0502V76.9043H19.7729V86.1816ZM29.2944 86.1816H38.5717V76.9043H29.2944V86.1816ZM38.8159 86.1816H48.0932V76.9043H38.8159V86.1816ZM48.3373 86.1816H57.6147V76.9043H48.3373V86.1816ZM57.8588 86.1816H67.1362V76.9043H57.8588V86.1816ZM67.3803 86.1816H76.6577V76.9043H67.3803V86.1816ZM76.9018 86.1816H86.1791V76.9043H76.9018V86.1816ZM86.4233 86.1816H95.7006V76.9043H86.4233V86.1816ZM95.9448 86.1816H105.222V76.9043H95.9448V86.1816ZM105.466 86.1816H114.744V76.9043H105.466V86.1816ZM10.2514 76.6602H19.5287V67.3828H10.2514V76.6602ZM19.7729 76.6602H29.0502V67.3828H19.7729V76.6602ZM29.2944 76.6602H38.5717V67.3828H29.2944V76.6602ZM38.8159 76.6602H48.0932V67.3828H38.8159V76.6602ZM48.3373 76.6602H57.6147V67.3828H48.3373V76.6602ZM57.8588 76.6602H67.1362V67.3828H57.8588V76.6602ZM67.3803 76.6602H76.6577V67.3828H67.3803V76.6602ZM76.9018 76.6602H86.1791V67.3828H76.9018V76.6602ZM86.4233 76.6602H95.7006V67.3828H86.4233V76.6602ZM95.9448 76.6602H105.222V67.3828H95.9448V76.6602ZM105.466 76.6602H114.744V67.3828H105.466V76.6602ZM10.2514 67.1387H19.5287V57.8613H10.2514V67.1387ZM19.7729 67.1387H29.0502V57.8613H19.7729V67.1387ZM29.2944 67.1387H38.5717V57.8613H29.2944V67.1387ZM38.8159 67.1387H48.0932V57.8613H38.8159V67.1387ZM48.3373 67.1387H57.6147V57.8613H48.3373V67.1387ZM57.8588 67.1387H67.1362V57.8613H57.8588V67.1387ZM67.3803 67.1387H76.6577V57.8613H67.3803V67.1387ZM76.9018 67.1387H86.1791V57.8613H76.9018V67.1387ZM86.4233 67.1387H95.7006V57.8613H86.4233V67.1387ZM95.9448 67.1387H105.222V57.8613H95.9448V67.1387ZM105.466 67.1387H114.744V57.8613H105.466V67.1387ZM10.2514 57.6172H19.5287V48.3398H10.2514V57.6172ZM19.7729 57.6172H29.0502V48.3398H19.7729V57.6172ZM29.2944 57.6172H38.5717V48.3398H29.2944V57.6172ZM38.8159 57.6172H48.0932V48.3398H38.8159V57.6172ZM48.3373 57.6172H57.6147V48.3398H48.3373V57.6172ZM57.8588 57.6172H67.1362V48.3398H57.8588V57.6172ZM67.3803 57.6172H76.6577V48.3398H67.3803V57.6172ZM76.9018 57.6172H86.1791V48.3398H76.9018V57.6172ZM86.4233 57.6172H95.7006V48.3398H86.4233V57.6172ZM95.9448 57.6172H105.222V48.3398H95.9448V57.6172ZM105.466 57.6172H114.744V48.3398H105.466V57.6172ZM10.2514 48.0957H19.5287V38.8184H10.2514V48.0957ZM19.7729 48.0957H29.0502V38.8184H19.7729V48.0957ZM29.2944 48.0957H38.5717V38.8184H29.2944V48.0957ZM38.8159 48.0957H48.0932V38.8184H38.8159V48.0957ZM48.3373 48.0957H57.6147V38.8184H48.3373V48.0957ZM57.8588 48.0957H67.1362V38.8184H57.8588V48.0957ZM67.3803 48.0957H76.6577V38.8184H67.3803V48.0957ZM76.9018 48.0957H86.1791V38.8184H76.9018V48.0957ZM86.4233 48.0957H95.7006V38.8184H86.4233V48.0957ZM95.9448 48.0957H105.222V38.8184H95.9448V48.0957ZM105.466 48.0957H114.744V38.8184H105.466V48.0957ZM10.2514 38.5742H19.5287V29.2969H10.2514V38.5742ZM19.7729 38.5742H29.0502V29.2969H19.7729V38.5742ZM29.2944 38.5742H38.5717V29.2969H29.2944V38.5742ZM38.8159 38.5742H48.0932V29.2969H38.8159V38.5742ZM48.3373 38.5742H57.6147V29.2969H48.3373V38.5742ZM57.8588 38.5742H67.1362V29.2969H57.8588V38.5742ZM67.3803 38.5742H76.6577V29.2969H67.3803V38.5742ZM76.9018 38.5742H86.1791V29.2969H76.9018V38.5742ZM86.4233 38.5742H95.7006V29.2969H86.4233V38.5742ZM95.9448 38.5742H105.222V29.2969H95.9448V38.5742ZM105.466 38.5742H114.744V29.2969H105.466V38.5742ZM19.7729 29.0527H29.0502V19.7754H19.7729V29.0527ZM29.2944 29.0527H38.5717V19.7754H29.2944V29.0527ZM38.8159 29.0527H48.0932V19.7754H38.8159V29.0527ZM48.3373 29.0527H57.6147V19.7754H48.3373V29.0527ZM57.8588 29.0527H67.1362V19.7754H57.8588V29.0527ZM67.3803 29.0527H76.6577V19.7754H67.3803V29.0527ZM76.9018 29.0527H86.1791V19.7754H76.9018V29.0527ZM86.4233 29.0527H95.7006V19.7754H86.4233V29.0527ZM95.9448 29.0527H105.222V19.7754H95.9448V29.0527ZM29.2944 19.5312H38.5717V10.2539H29.2944V19.5312ZM38.8159 19.5312H48.0932V10.2539H38.8159V19.5312ZM48.3373 19.5312H57.6147V10.2539H48.3373V19.5312ZM57.8588 19.5312H67.1362V10.2539H57.8588V19.5312ZM67.3803 19.5312H76.6577V10.2539H67.3803V19.5312ZM76.9018 19.5312H86.1791V10.2539H76.9018V19.5312ZM86.4233 19.5312H95.7006V10.2539H86.4233V19.5312Z" fill="#E4FFFD"/>
</g>
<g filter="url(#filter2_n_891_11261)">
<mask id="path-3-inside-1_891_11261" fill="white">
<path d="M73.333 73.4861C76.6537 73.3812 78.9094 74.9077 81.5166 76.239C85.1206 78.0775 89.0161 80.0839 93.8896 81.7663C96.7198 82.7416 101.294 84.9853 105.465 86.653C109.919 88.4354 113.956 89.6935 116.408 92.2829C116.875 92.8205 117.207 93.4185 117.432 94.0515C116.947 99.2654 115.538 104.432 112.11 108.508C107.362 114.667 99.444 117.423 91.8516 117.481C77.4795 117.794 63.0956 117.539 48.7119 117.62C41.7233 117.516 34.7 117.967 27.7578 116.971C20.4209 115.964 13.5481 111.379 10.2627 104.699C8.30313 101.07 7.59091 97.0538 7.32422 92.987C11.7776 91.7026 15.5978 90.6706 18.8633 89.3816C26.8869 86.2143 31.7786 82.9003 36.0488 80.3425C43.3827 75.9487 47.9184 73.4669 52.3066 73.7058C57.3087 73.9813 60.5644 77.2774 62.9277 77.1921C65.839 77.0846 66.802 73.6909 73.333 73.4861Z"/>
</mask>
<path d="M73.333 73.4861C76.6537 73.3812 78.9094 74.9077 81.5166 76.239C85.1206 78.0775 89.0161 80.0839 93.8896 81.7663C96.7198 82.7416 101.294 84.9853 105.465 86.653C109.919 88.4354 113.956 89.6935 116.408 92.2829C116.875 92.8205 117.207 93.4185 117.432 94.0515C116.947 99.2654 115.538 104.432 112.11 108.508C107.362 114.667 99.444 117.423 91.8516 117.481C77.4795 117.794 63.0956 117.539 48.7119 117.62C41.7233 117.516 34.7 117.967 27.7578 116.971C20.4209 115.964 13.5481 111.379 10.2627 104.699C8.30313 101.07 7.59091 97.0538 7.32422 92.987C11.7776 91.7026 15.5978 90.6706 18.8633 89.3816C26.8869 86.2143 31.7786 82.9003 36.0488 80.3425C43.3827 75.9487 47.9184 73.4669 52.3066 73.7058C57.3087 73.9813 60.5644 77.2774 62.9277 77.1921C65.839 77.0846 66.802 73.6909 73.333 73.4861Z" fill="url(#paint0_linear_891_11261)"/>
<path d="M73.333 73.4861L73.3693 74.6429L73.3695 74.6429L73.333 73.4861ZM81.5166 76.239L80.9903 77.2698L80.9907 77.27L81.5166 76.239ZM93.8896 81.7663L93.512 82.8604L93.5126 82.8606L93.8896 81.7663ZM105.465 86.653L105.895 85.5785L105.895 85.5784L105.465 86.653ZM116.408 92.2829L117.282 91.5239L117.266 91.5051L117.249 91.487L116.408 92.2829ZM117.432 94.0515L118.584 94.1587L118.608 93.905L118.523 93.6649L117.432 94.0515ZM112.11 108.508L111.225 107.763L111.209 107.781L111.194 107.801L112.11 108.508ZM91.8516 117.481L91.8427 116.324L91.8346 116.324L91.8264 116.324L91.8516 117.481ZM48.7119 117.62L48.6947 118.777L48.7065 118.777L48.7184 118.777L48.7119 117.62ZM27.7578 116.971L27.9221 115.826L27.9152 115.825L27.7578 116.971ZM10.2627 104.699L11.3013 104.188L11.2916 104.168L11.2811 104.149L10.2627 104.699ZM7.32422 92.987L7.00347 91.875L6.10833 92.1331L6.16929 93.0628L7.32422 92.987ZM18.8633 89.3816L18.4383 88.305L18.4383 88.305L18.8633 89.3816ZM36.0488 80.3425L36.6436 81.3354L36.6437 81.3354L36.0488 80.3425ZM52.3066 73.7058L52.3703 72.5501L52.3695 72.5501L52.3066 73.7058ZM62.9277 77.1921L62.9695 78.3488L62.9705 78.3487L62.9277 77.1921ZM73.333 73.4861L73.3695 74.6429C76.3154 74.5499 78.2403 75.8656 80.9903 77.2698L81.5166 76.239L82.0429 75.2082C79.5785 73.9498 76.992 72.2126 73.2965 72.3292L73.333 73.4861ZM81.5166 76.239L80.9907 77.27C84.5891 79.1056 88.5518 81.1481 93.512 82.8604L93.8896 81.7663L94.2673 80.6723C89.4803 79.0197 85.6521 77.0493 82.0425 75.208L81.5166 76.239ZM93.8896 81.7663L93.5126 82.8606C94.8728 83.3293 96.6772 84.1125 98.7071 85.0088C100.717 85.896 102.926 86.8843 105.035 87.7277L105.465 86.653L105.895 85.5784C103.833 84.754 101.67 83.7866 99.6421 82.8912C97.6347 82.0049 95.7367 81.1786 94.2667 80.6721L93.8896 81.7663ZM105.465 86.653L105.035 87.7276C107.319 88.6417 109.365 89.3715 111.203 90.2169C113.023 91.0535 114.49 91.9412 115.568 93.0788L116.408 92.2829L117.249 91.487C115.873 90.0353 114.096 88.9992 112.171 88.1138C110.264 87.2372 108.064 86.4467 105.895 85.5785L105.465 86.653ZM116.408 92.2829L115.534 93.042C115.899 93.4611 116.161 93.9301 116.341 94.4381L117.432 94.0515L118.523 93.6649C118.254 92.9069 117.852 92.1799 117.282 91.5239L116.408 92.2829ZM117.432 94.0515L116.279 93.9443C115.805 99.04 114.44 103.94 111.225 107.763L112.11 108.508L112.996 109.253C116.637 104.924 118.088 99.4907 118.584 94.1587L117.432 94.0515ZM112.11 108.508L111.194 107.801C106.728 113.595 99.201 116.268 91.8427 116.324L91.8516 117.481L91.8604 118.639C99.687 118.579 107.997 115.74 113.027 109.214L112.11 108.508ZM91.8516 117.481L91.8264 116.324C77.4612 116.636 63.1307 116.381 48.7054 116.462L48.7119 117.62L48.7184 118.777C63.0604 118.696 77.4979 118.951 91.8767 118.638L91.8516 117.481ZM48.7119 117.62L48.7292 116.463C41.617 116.357 34.7675 116.808 27.9221 115.826L27.7578 116.971L27.5935 118.117C34.6324 119.127 41.8296 118.675 48.6947 118.777L48.7119 117.62ZM27.7578 116.971L27.9152 115.825C20.9244 114.865 14.4019 110.493 11.3013 104.188L10.2627 104.699L9.22409 105.21C12.6944 112.266 19.9174 117.063 27.6004 118.118L27.7578 116.971ZM10.2627 104.699L11.2811 104.149C9.43511 100.731 8.74099 96.9042 8.47915 92.9113L7.32422 92.987L6.16929 93.0628C6.44082 97.2034 7.17116 101.41 9.24431 105.249L10.2627 104.699ZM7.32422 92.987L7.64497 94.0991C12.0621 92.8251 15.9567 91.7733 19.2883 90.4581L18.8633 89.3816L18.4383 88.305C15.2388 89.568 11.493 90.5801 7.00347 91.875L7.32422 92.987ZM18.8633 89.3816L19.2882 90.4581C27.4219 87.2474 32.4108 83.8708 36.6436 81.3354L36.0488 80.3425L35.4541 79.3496C31.1465 81.9297 26.3519 85.1812 18.4383 88.305L18.8633 89.3816ZM36.0488 80.3425L36.6437 81.3354C40.3186 79.1337 43.2254 77.4528 45.7472 76.3469C48.257 75.2462 50.2989 74.7556 52.2437 74.8615L52.3066 73.7058L52.3695 72.5501C49.9261 72.4171 47.506 73.048 44.8175 74.2269C42.1409 75.4007 39.1129 77.1576 35.454 79.3496L36.0488 80.3425ZM52.3066 73.7058L52.243 74.8614C54.5037 74.986 56.396 75.792 58.0985 76.6241C58.9199 77.0256 59.77 77.4708 60.5255 77.7889C61.2832 78.1079 62.1203 78.3794 62.9695 78.3488L62.9277 77.1921L62.886 76.0355C62.5535 76.0475 62.0974 75.939 61.4237 75.6554C60.7477 75.3708 60.0281 74.9907 59.115 74.5444C57.3483 73.6809 55.1116 72.7011 52.3703 72.5501L52.3066 73.7058ZM62.9277 77.1921L62.9705 78.3487C63.9416 78.3129 64.7289 77.9977 65.4282 77.6067C65.7703 77.4154 66.1014 77.2 66.4168 76.991C66.7413 76.7759 67.0482 76.5683 67.3861 76.3573C68.6685 75.5563 70.3456 74.7377 73.3693 74.6429L73.333 73.4861L73.2967 72.3292C69.7894 72.4392 67.7195 73.4199 66.1599 74.3939C65.7872 74.6266 65.4401 74.8612 65.1379 75.0615C64.8266 75.2679 64.5581 75.4411 64.2984 75.5863C63.7943 75.8682 63.3695 76.0176 62.885 76.0355L62.9277 77.1921Z" fill="#EEFFFE" fill-opacity="0.8" mask="url(#path-3-inside-1_891_11261)"/>
</g>
<mask id="path-5-inside-2_891_11261" fill="white">
<path d="M62.3955 20.7463C74.0686 20.7463 83.5311 30.1901 83.5312 41.84C83.5312 47.663 80.8889 52.6763 77.3438 56.7531C73.7307 60.908 67.1562 68.5901 62.3955 73.4807C58.1704 69.2555 50.1711 60.0538 47.4473 56.7531C44.0085 52.5861 41.2598 47.663 41.2598 41.84C41.2599 30.19 50.7224 20.7463 62.3955 20.7463ZM62.3926 34.5549C58.3475 34.5549 55.0684 37.834 55.0684 41.8791C55.0685 45.924 58.3476 49.2033 62.3926 49.2033C66.4374 49.2031 69.7167 45.9239 69.7168 41.8791C69.7168 37.8341 66.4374 34.5551 62.3926 34.5549Z"/>
</mask>
<path d="M62.3955 20.7463C74.0686 20.7463 83.5311 30.1901 83.5312 41.84C83.5312 47.663 80.8889 52.6763 77.3438 56.7531C73.7307 60.908 67.1562 68.5901 62.3955 73.4807C58.1704 69.2555 50.1711 60.0538 47.4473 56.7531C44.0085 52.5861 41.2598 47.663 41.2598 41.84C41.2599 30.19 50.7224 20.7463 62.3955 20.7463ZM62.3926 34.5549C58.3475 34.5549 55.0684 37.834 55.0684 41.8791C55.0685 45.924 58.3476 49.2033 62.3926 49.2033C66.4374 49.2031 69.7167 45.9239 69.7168 41.8791C69.7168 37.8341 66.4374 34.5551 62.3926 34.5549Z" fill="url(#paint1_linear_891_11261)"/>
<path d="M62.3955 20.7463L62.3955 19.5889H62.3955V20.7463ZM83.5312 41.84H84.6887V41.84L83.5312 41.84ZM77.3438 56.7531L76.4704 55.9936L77.3438 56.7531ZM62.3955 73.4807L61.5771 74.2991L62.4066 75.1286L63.2249 74.288L62.3955 73.4807ZM47.4473 56.7531L46.5546 57.4898L46.5546 57.4898L47.4473 56.7531ZM41.2598 41.84L40.1024 41.84V41.84H41.2598ZM62.3926 34.5549L62.3926 33.3975H62.3926V34.5549ZM55.0684 41.8791H53.911V41.8791L55.0684 41.8791ZM62.3926 49.2033V50.3607H62.3926L62.3926 49.2033ZM69.7168 41.8791L70.8742 41.8791V41.8791H69.7168ZM62.3955 20.7463L62.3955 21.9037C73.4315 21.9037 82.3737 30.8315 82.3738 41.84L83.5312 41.84L84.6887 41.84C84.6885 29.5487 74.7057 19.5889 62.3955 19.5889L62.3955 20.7463ZM83.5312 41.84H82.3738C82.3738 47.294 79.9015 52.0481 76.4704 55.9936L77.3438 56.7531L78.2171 57.5126C81.8764 53.3046 84.6887 48.0319 84.6887 41.84H83.5312ZM77.3438 56.7531L76.4704 55.9936C72.8419 60.1662 66.2975 67.8129 61.5662 72.6733L62.3955 73.4807L63.2249 74.288C68.0149 69.3673 74.6194 61.6498 78.2171 57.5126L77.3438 56.7531ZM62.3955 73.4807L63.2139 72.6622C59.0273 68.4756 51.0552 59.3066 48.3399 56.0164L47.4473 56.7531L46.5546 57.4898C49.2871 60.8009 57.3135 70.0355 61.5771 74.2991L62.3955 73.4807ZM47.4473 56.7531L48.3399 56.0164C44.9818 51.9471 42.4172 47.2798 42.4172 41.84H41.2598H40.1024C40.1024 48.0461 43.0352 53.2252 46.5546 57.4898L47.4473 56.7531ZM41.2598 41.84L42.4172 41.84C42.4173 30.8314 51.3594 21.9037 62.3955 21.9037V20.7463V19.5889C50.0853 19.5889 40.1025 29.5487 40.1024 41.84L41.2598 41.84ZM62.3926 34.5549V33.3975C57.7083 33.3975 53.911 37.1948 53.911 41.8791H55.0684H56.2258C56.2258 38.4732 58.9867 35.7123 62.3926 35.7123V34.5549ZM55.0684 41.8791L53.911 41.8791C53.9111 46.5632 57.7083 50.3607 62.3926 50.3607V49.2033V48.0459C58.9868 48.0459 56.2259 45.2848 56.2258 41.8791L55.0684 41.8791ZM62.3926 49.2033L62.3926 50.3607C67.0766 50.3605 70.8741 46.5632 70.8742 41.8791L69.7168 41.8791L68.5594 41.8791C68.5593 45.2846 65.7982 48.0457 62.3925 48.0459L62.3926 49.2033ZM69.7168 41.8791H70.8742C70.8742 37.1949 67.0766 33.3977 62.3926 33.3975L62.3926 34.5549L62.3925 35.7123C65.7983 35.7125 68.5594 38.4734 68.5594 41.8791H69.7168Z" fill="#EEFFFE" fill-opacity="0.8" mask="url(#path-5-inside-2_891_11261)"/>
<path d="M49.7083 13.9901H49.4106V12.571H48.9101V12.3184H50.2076V12.571H49.7083V13.9901ZM51.6605 12.5605V13.1316H51.9976C52.1876 13.1316 52.2976 13.0262 52.2976 12.8455C52.2976 12.6694 52.1806 12.5605 51.9918 12.5605H51.6605ZM51.6605 13.361V13.9901H51.3616V12.3184H52.0254C52.3868 12.3184 52.6034 12.5188 52.6034 12.8386C52.6034 13.0598 52.4876 13.244 52.2883 13.3158L52.6533 13.9901H52.3127L51.9837 13.361H51.6605ZM54.5302 12.2906C55.0167 12.2906 55.3225 12.6231 55.3225 13.1548C55.3225 13.6865 55.0167 14.0179 54.5302 14.0179C54.0424 14.0179 53.7366 13.6865 53.7366 13.1548C53.7366 12.6231 54.0424 12.2906 54.5302 12.2906ZM54.5302 12.5455C54.2313 12.5455 54.0424 12.7818 54.0424 13.1548C54.0424 13.5267 54.2313 13.763 54.5302 13.763C54.8279 13.763 55.0179 13.5267 55.0179 13.1548C55.0179 12.7818 54.8279 12.5455 54.5302 12.5455ZM56.5102 12.3184H57.16C57.4925 12.3184 57.723 12.5443 57.723 12.878C57.723 13.2116 57.4856 13.4375 57.1473 13.4375H56.809V13.9901H56.5102V12.3184ZM56.809 12.5629V13.1965H57.0801C57.2944 13.1965 57.4195 13.0807 57.4195 12.878C57.4195 12.6775 57.2956 12.5629 57.0813 12.5629H56.809ZM59.8374 13.9901L59.6949 13.558H59.0798L58.9373 13.9901H58.6292L59.2223 12.3184H59.5594L60.1525 13.9901H59.8374ZM59.3833 12.6138L59.1493 13.3274H59.6243L59.3914 12.6138H59.3833ZM62.9935 13.9901H62.705V12.3184H62.9645L63.7939 13.4896H63.8044V12.3184H64.0917V13.9901H63.8345L63.0039 12.8177H62.9935V13.9901ZM66.4285 13.9901L66.286 13.558H65.6708L65.5284 13.9901H65.2202L65.8133 12.3184H66.1504L66.7436 13.9901H66.4285ZM65.9743 12.6138L65.7403 13.3274H66.2153L65.9825 12.6138H65.9743ZM68.171 12.5605V13.1316H68.5081C68.6981 13.1316 68.8081 13.0262 68.8081 12.8455C68.8081 12.6694 68.6911 12.5605 68.5023 12.5605H68.171ZM68.171 13.361V13.9901H67.8721V12.3184H68.5359C68.8973 12.3184 69.1139 12.5188 69.1139 12.8386C69.1139 13.0598 68.9981 13.244 68.7989 13.3158L69.1638 13.9901H68.8232L68.4942 13.361H68.171ZM71.0105 13.9901H70.7128V12.571H70.2124V12.3184H71.5098V12.571H71.0105V13.9901ZM73.3033 12.2906C73.7899 12.2906 74.0957 12.6231 74.0957 13.1548C74.0957 13.6865 73.7899 14.0179 73.3033 14.0179C72.8156 14.0179 72.5098 13.6865 72.5098 13.1548C72.5098 12.6231 72.8156 12.2906 73.3033 12.2906ZM73.3033 12.5455C73.0044 12.5455 72.8156 12.7818 72.8156 13.1548C72.8156 13.5267 73.0044 13.763 73.3033 13.763C73.601 13.763 73.791 13.5267 73.791 13.1548C73.791 12.7818 73.601 12.5455 73.3033 12.5455ZM76.034 13.9901H75.6911L75.1096 12.3184H75.4385L75.8625 13.6692H75.8695L76.2935 12.3184H76.6155L76.034 13.9901Z" fill="white" fill-opacity="0.5"/>
<defs>
<filter id="filter0_f_891_11261" x="2.198" y="2.19727" width="120.605" height="120.605" filterUnits="userSpaceOnUse" color-interpolation-filters="sRGB">
<feFlood flood-opacity="0" result="BackgroundImageFix"/>
<feBlend mode="normal" in="SourceGraphic" in2="BackgroundImageFix" result="shape"/>
<feGaussianBlur stdDeviation="0" result="effect1_foregroundBlur_891_11261"/>
</filter>
<filter id="filter1_f_891_11261" x="2.19769" y="2.19922" width="120.602" height="120.599" filterUnits="userSpaceOnUse" color-interpolation-filters="sRGB">
<feFlood flood-opacity="0" result="BackgroundImageFix"/>
<feBlend mode="normal" in="SourceGraphic" in2="BackgroundImageFix" result="shape"/>
<feGaussianBlur stdDeviation="0" result="effect1_foregroundBlur_891_11261"/>
</filter>
<filter id="filter2_n_891_11261" x="7.32422" y="73.4809" width="110.107" height="44.1608" filterUnits="userSpaceOnUse" color-interpolation-filters="sRGB">
<feFlood flood-opacity="0" result="BackgroundImageFix"/>
<feBlend mode="normal" in="SourceGraphic" in2="BackgroundImageFix" result="shape"/>
<feTurbulence type="fractalNoise" baseFrequency="1.6995848417282104 1.6995848417282104" stitchTiles="stitch" numOctaves="3" result="noise" seed="8742" />
<feColorMatrix in="noise" type="luminanceToAlpha" result="alphaNoise" />
<feComponentTransfer in="alphaNoise" result="coloredNoise1">
<feFuncA type="discrete" tableValues="0 0 0 0 0 0 0 0 0 0 0 0 0 0 0 0 0 0 0 1 1 1 1 1 1 1 1 1 1 1 1 1 0 0 0 0 0 0 0 0 0 0 0 0 0 0 0 0 0 0 0 0 0 0 0 0 0 0 0 0 0 0 0 0 0 0 0 0 0 0 0 0 0 0 0 0 0 0 0 0 0 0 0 0 0 0 0 0 0 0 0 0 0 0 0 0 0 0 0 0 "/>
</feComponentTransfer>
<feComposite operator="in" in2="shape" in="coloredNoise1" result="noise1Clipped" />
<feComponentTransfer in="alphaNoise" result="coloredNoise2">
<feFuncA type="discrete" tableValues="0 0 0 0 0 0 0 0 0 0 0 0 0 0 0 0 0 0 0 0 0 0 0 0 0 0 0 0 0 0 0 0 0 0 0 0 0 0 0 0 0 0 0 0 0 0 0 0 0 0 0 0 0 0 0 0 0 0 0 0 0 0 0 0 0 0 0 0 1 1 1 1 1 1 1 1 1 1 1 1 1 0 0 0 0 0 0 0 0 0 0 0 0 0 0 0 0 0 0 0 "/>
</feComponentTransfer>
<feComposite operator="in" in2="shape" in="coloredNoise2" result="noise2Clipped" />
<feFlood flood-color="#32B6AB" result="color1Flood" />
<feComposite operator="in" in2="noise1Clipped" in="color1Flood" result="color1" />
<feFlood flood-color="rgba(255, 255, 255, 0.25)" result="color2Flood" />
<feComposite operator="in" in2="noise2Clipped" in="color2Flood" result="color2" />
<feMerge result="effect1_noise_891_11261">
<feMergeNode in="shape" />
<feMergeNode in="color1" />
<feMergeNode in="color2" />
</feMerge>
</filter>
<linearGradient id="paint0_linear_891_11261" x1="62.3779" y1="73.4812" x2="62.3779" y2="117.642" gradientUnits="userSpaceOnUse">
<stop stop-color="white"/>
<stop offset="1" stop-color="#C5FFFA"/>
</linearGradient>
<linearGradient id="paint1_linear_891_11261" x1="62.3955" y1="20.7463" x2="62.3955" y2="73.4807" gradientUnits="userSpaceOnUse">
<stop stop-color="white"/>
<stop offset="1" stop-color="#C5FFFA"/>
</linearGradient>
</defs>
</svg>
