<svg width="111" height="45" viewBox="0 0 111 45" fill="none" xmlns="http://www.w3.org/2000/svg">
<g filter="url(#filter0_n_891_11267)">
<mask id="path-1-inside-1_891_11267" fill="white">
<path d="M66.0088 0.00512695C69.3294 -0.0996792 71.5852 1.42677 74.1924 2.75806C77.7964 4.59654 81.6919 6.60297 86.5654 8.2854C89.3956 9.26071 93.9701 11.5043 98.1406 13.1721C102.594 14.9545 106.631 16.2126 109.084 18.802C109.551 19.3396 109.883 19.9376 110.107 20.5706C109.622 25.7844 108.214 30.9509 104.786 35.0266C100.038 41.1863 92.1197 43.9424 84.5273 44.0002C70.1553 44.3128 55.7714 44.0579 41.3877 44.1389C34.3991 44.0347 27.3757 44.4862 20.4336 43.4905C13.0967 42.4832 6.22392 37.8986 2.93848 31.218C0.978914 27.5895 0.266688 23.5729 0 19.5061C4.45334 18.2216 8.27355 17.1897 11.5391 15.9006C19.5627 12.7334 24.4544 9.41932 28.7246 6.86157C36.0585 2.46781 40.5942 -0.0140193 44.9824 0.224854C49.9845 0.500411 53.2402 3.79652 55.6035 3.71118C58.5148 3.60365 59.4778 0.209956 66.0088 0.00512695Z"/>
</mask>
<path d="M66.0088 0.00512695C69.3294 -0.0996792 71.5852 1.42677 74.1924 2.75806C77.7964 4.59654 81.6919 6.60297 86.5654 8.2854C89.3956 9.26071 93.9701 11.5043 98.1406 13.1721C102.594 14.9545 106.631 16.2126 109.084 18.802C109.551 19.3396 109.883 19.9376 110.107 20.5706C109.622 25.7844 108.214 30.9509 104.786 35.0266C100.038 41.1863 92.1197 43.9424 84.5273 44.0002C70.1553 44.3128 55.7714 44.0579 41.3877 44.1389C34.3991 44.0347 27.3757 44.4862 20.4336 43.4905C13.0967 42.4832 6.22392 37.8986 2.93848 31.218C0.978914 27.5895 0.266688 23.5729 0 19.5061C4.45334 18.2216 8.27355 17.1897 11.5391 15.9006C19.5627 12.7334 24.4544 9.41932 28.7246 6.86157C36.0585 2.46781 40.5942 -0.0140193 44.9824 0.224854C49.9845 0.500411 53.2402 3.79652 55.6035 3.71118C58.5148 3.60365 59.4778 0.209956 66.0088 0.00512695Z" fill="url(#paint0_linear_891_11267)"/>
<path d="M66.0088 0.00512695L66.0451 1.16197L66.0453 1.16196L66.0088 0.00512695ZM74.1924 2.75806L73.666 3.78886L73.6664 3.78907L74.1924 2.75806ZM86.5654 8.2854L86.1877 9.37945L86.1883 9.37966L86.5654 8.2854ZM98.1406 13.1721L98.5706 12.0976L98.5704 12.0975L98.1406 13.1721ZM109.084 18.802L109.958 18.043L109.941 18.0242L109.924 18.0061L109.084 18.802ZM110.107 20.5706L111.26 20.6778L111.283 20.4241L111.198 20.1839L110.107 20.5706ZM104.786 35.0266L103.9 34.2816L103.884 34.3005L103.869 34.32L104.786 35.0266ZM84.5273 44.0002L84.5185 42.8429L84.5103 42.8429L84.5022 42.8431L84.5273 44.0002ZM41.3877 44.1389L41.3704 45.2962L41.3823 45.2964L41.3942 45.2963L41.3877 44.1389ZM20.4336 43.4905L20.5979 42.3448L20.591 42.3438L20.4336 43.4905ZM2.93848 31.218L3.97708 30.7072L3.96735 30.6874L3.95686 30.668L2.93848 31.218ZM0 19.5061L-0.320752 18.394L-1.21589 18.6522L-1.15493 19.5818L0 19.5061ZM11.5391 15.9006L11.1141 14.8241L11.1141 14.8241L11.5391 15.9006ZM28.7246 6.86157L29.3193 7.85449L29.3194 7.85443L28.7246 6.86157ZM44.9824 0.224854L45.0461 -0.930802L45.0453 -0.930843L44.9824 0.224854ZM55.6035 3.71118L55.6453 4.86784L55.6462 4.8678L55.6035 3.71118ZM66.0088 0.00512695L66.0453 1.16196C68.9911 1.06898 70.9161 2.38468 73.666 3.78886L74.1924 2.75806L74.7187 1.72725C72.2543 0.468853 69.6677 -1.26834 65.9723 -1.1517L66.0088 0.00512695ZM74.1924 2.75806L73.6664 3.78907C77.2649 5.62471 81.2276 7.66713 86.1877 9.37945L86.5654 8.2854L86.9431 7.19135C82.1561 5.53881 78.3279 3.56836 74.7183 1.72705L74.1924 2.75806ZM86.5654 8.2854L86.1883 9.37966C87.5486 9.84841 89.353 10.6316 91.3829 11.5279C93.3924 12.4151 95.6018 13.4034 97.7109 14.2468L98.1406 13.1721L98.5704 12.0975C96.5089 11.2731 94.3458 10.3056 92.3179 9.41028C90.3104 8.52396 88.4125 7.6977 86.9425 7.19114L86.5654 8.2854ZM98.1406 13.1721L97.7106 14.2467C99.9948 15.1608 102.041 15.8906 103.879 16.736C105.699 17.5726 107.166 18.4603 108.244 19.5979L109.084 18.802L109.924 18.0061C108.549 16.5543 106.772 15.5183 104.846 14.6328C102.94 13.7562 100.74 12.9658 98.5706 12.0976L98.1406 13.1721ZM109.084 18.802L108.21 19.561C108.574 19.9802 108.836 20.4491 109.016 20.9572L110.107 20.5706L111.198 20.1839C110.93 19.426 110.528 18.699 109.958 18.043L109.084 18.802ZM110.107 20.5706L108.955 20.4633C108.481 25.5591 107.115 30.459 103.9 34.2816L104.786 35.0266L105.672 35.7716C109.313 31.4427 110.764 26.0098 111.26 20.6778L110.107 20.5706ZM104.786 35.0266L103.869 34.32C99.4033 40.1138 91.8767 42.7868 84.5185 42.8429L84.5273 44.0002L84.5362 45.1576C92.3628 45.0979 100.673 42.2587 105.703 35.7332L104.786 35.0266ZM84.5273 44.0002L84.5022 42.8431C70.1369 43.1556 55.8065 42.9002 41.3812 42.9815L41.3877 44.1389L41.3942 45.2963C55.7362 45.2155 70.1736 45.4701 84.5525 45.1574L84.5273 44.0002ZM41.3877 44.1389L41.4049 42.9816C34.2928 42.8756 27.4433 43.3266 20.5979 42.3448L20.4336 43.4905L20.2693 44.6362C27.3082 45.6457 34.5054 45.1939 41.3704 45.2962L41.3877 44.1389ZM20.4336 43.4905L20.591 42.3438C13.6002 41.384 7.07768 37.0119 3.97708 30.7072L2.93848 31.218L1.89987 31.7288C5.37017 38.7852 12.5932 43.5823 20.2762 44.6371L20.4336 43.4905ZM2.93848 31.218L3.95686 30.668C2.11089 27.2499 1.41677 23.4233 1.15493 19.4304L0 19.5061L-1.15493 19.5818C-0.883394 23.7225 -0.153062 27.9292 1.92009 31.768L2.93848 31.218ZM0 19.5061L0.320752 20.6182C4.73792 19.3442 8.63249 18.2923 11.964 16.9772L11.5391 15.9006L11.1141 14.8241C7.91459 16.0871 4.16876 17.0991 -0.320752 18.394L0 19.5061ZM11.5391 15.9006L11.964 16.9772C20.0977 13.7665 25.0866 10.3898 29.3193 7.85449L28.7246 6.86157L28.1299 5.86866C23.8223 8.44882 19.0276 11.7002 11.1141 14.8241L11.5391 15.9006ZM28.7246 6.86157L29.3194 7.85443C32.9944 5.65275 35.9011 3.97183 38.4229 2.86594C40.9328 1.76529 42.9747 1.27468 44.9195 1.38055L44.9824 0.224854L45.0453 -0.930843C42.6019 -1.06385 40.1818 -0.432975 37.4933 0.746007C34.8167 1.91976 31.7887 3.67663 28.1298 5.86871L28.7246 6.86157ZM44.9824 0.224854L44.9188 1.38051C47.1795 1.50505 49.0718 2.31109 50.7743 3.1432C51.5957 3.5447 52.4458 3.98986 53.2013 4.30793C53.959 4.62693 54.7961 4.8985 55.6453 4.86784L55.6035 3.71118L55.5617 2.55453C55.2293 2.56653 54.7732 2.4581 54.0994 2.17447C53.4235 1.8899 52.7039 1.50982 51.7907 1.06351C50.024 0.200011 47.7874 -0.779785 45.0461 -0.930802L44.9824 0.224854ZM55.6035 3.71118L55.6462 4.8678C56.6174 4.83193 57.4047 4.51679 58.104 4.12574C58.4461 3.93447 58.7772 3.7191 59.0925 3.51006C59.4171 3.29494 59.724 3.08733 60.0618 2.87633C61.3443 2.0754 63.0214 1.25679 66.0451 1.16197L66.0088 0.00512695L65.9725 -1.15171C62.4651 -1.04171 60.3953 -0.0610563 58.8357 0.912951C58.463 1.14568 58.1159 1.38029 57.8137 1.58056C57.5024 1.78693 57.2339 1.96015 56.9742 2.10536C56.4701 2.38727 56.0453 2.53667 55.5608 2.55456L55.6035 3.71118Z" fill="#EEFFFE" fill-opacity="0.8" mask="url(#path-1-inside-1_891_11267)"/>
</g>
<defs>
<filter id="filter0_n_891_11267" x="0" y="0" width="110.107" height="44.1608" filterUnits="userSpaceOnUse" color-interpolation-filters="sRGB">
<feFlood flood-opacity="0" result="BackgroundImageFix"/>
<feBlend mode="normal" in="SourceGraphic" in2="BackgroundImageFix" result="shape"/>
<feTurbulence type="fractalNoise" baseFrequency="1.6995848417282104 1.6995848417282104" stitchTiles="stitch" numOctaves="3" result="noise" seed="8742" />
<feColorMatrix in="noise" type="luminanceToAlpha" result="alphaNoise" />
<feComponentTransfer in="alphaNoise" result="coloredNoise1">
<feFuncA type="discrete" tableValues="0 0 0 0 0 0 0 0 0 0 0 0 0 0 0 0 0 0 0 1 1 1 1 1 1 1 1 1 1 1 1 1 0 0 0 0 0 0 0 0 0 0 0 0 0 0 0 0 0 0 0 0 0 0 0 0 0 0 0 0 0 0 0 0 0 0 0 0 0 0 0 0 0 0 0 0 0 0 0 0 0 0 0 0 0 0 0 0 0 0 0 0 0 0 0 0 0 0 0 0 "/>
</feComponentTransfer>
<feComposite operator="in" in2="shape" in="coloredNoise1" result="noise1Clipped" />
<feComponentTransfer in="alphaNoise" result="coloredNoise2">
<feFuncA type="discrete" tableValues="0 0 0 0 0 0 0 0 0 0 0 0 0 0 0 0 0 0 0 0 0 0 0 0 0 0 0 0 0 0 0 0 0 0 0 0 0 0 0 0 0 0 0 0 0 0 0 0 0 0 0 0 0 0 0 0 0 0 0 0 0 0 0 0 0 0 0 0 1 1 1 1 1 1 1 1 1 1 1 1 1 0 0 0 0 0 0 0 0 0 0 0 0 0 0 0 0 0 0 0 "/>
</feComponentTransfer>
<feComposite operator="in" in2="shape" in="coloredNoise2" result="noise2Clipped" />
<feFlood flood-color="#32B6AB" result="color1Flood" />
<feComposite operator="in" in2="noise1Clipped" in="color1Flood" result="color1" />
<feFlood flood-color="rgba(255, 255, 255, 0.25)" result="color2Flood" />
<feComposite operator="in" in2="noise2Clipped" in="color2Flood" result="color2" />
<feMerge result="effect1_noise_891_11267">
<feMergeNode in="shape" />
<feMergeNode in="color1" />
<feMergeNode in="color2" />
</feMerge>
</filter>
<linearGradient id="paint0_linear_891_11267" x1="55.0537" y1="0.000244141" x2="55.0537" y2="44.161" gradientUnits="userSpaceOnUse">
<stop stop-color="white"/>
<stop offset="1" stop-color="#C5FFFA"/>
</linearGradient>
</defs>
</svg>
