<svg width="15" height="15" viewBox="0 0 15 15" fill="none" xmlns="http://www.w3.org/2000/svg">
<path d="M9.6875 6.875C9.6875 8.08312 8.70812 9.0625 7.5 9.0625C6.29188 9.0625 5.3125 8.08312 5.3125 6.875C5.3125 5.66688 6.29188 4.6875 7.5 4.6875C8.70812 4.6875 9.6875 5.66688 9.6875 6.875Z" stroke="black" stroke-opacity="0.4"/>
<path d="M7.5 1.25C10.5441 1.25 13.125 3.77061 13.125 6.8286C13.125 9.93529 10.5021 12.1154 8.07938 13.5979C7.90282 13.6976 7.70315 13.75 7.5 13.75C7.29685 13.75 7.09718 13.6976 6.92062 13.5979C4.50243 12.101 1.875 9.94603 1.875 6.8286C1.875 3.77061 4.4559 1.25 7.5 1.25Z" stroke="black" stroke-opacity="0.4"/>
</svg>
