<svg width="16" height="16" viewBox="0 0 16 16" fill="none" xmlns="http://www.w3.org/2000/svg">
<path d="M10.3334 7.33333C10.3334 8.622 9.28875 9.66667 8.00008 9.66667C6.71142 9.66667 5.66675 8.622 5.66675 7.33333C5.66675 6.04467 6.71142 5 8.00008 5C9.28875 5 10.3334 6.04467 10.3334 7.33333Z" stroke="white" stroke-width="1.2"/>
<path d="M8 1.33331C11.247 1.33331 14 4.02196 14 7.28382C14 10.5976 11.2022 12.9231 8.618 14.5044C8.42967 14.6107 8.2167 14.6666 8 14.6666C7.7833 14.6666 7.57033 14.6107 7.382 14.5044C4.8026 12.9077 2 10.6091 2 7.28382C2 4.02196 4.75296 1.33331 8 1.33331Z" stroke="white" stroke-width="1.2"/>
</svg>
