<svg width="20" height="20" viewBox="0 0 20 20" fill="none" xmlns="http://www.w3.org/2000/svg">
<path d="M16.7199 15.4665L13.1505 11.9479C13.1419 11.9395 13.1302 11.9369 13.1213 11.9289C13.9814 10.8176 14.3851 9.42761 14.2519 8.03599C14.1187 6.64437 13.4585 5.35331 12.4028 4.4201C11.3471 3.48689 9.9734 2.98005 8.55553 3.0006C7.13765 3.02115 5.77969 3.56757 4.75226 4.53097C3.72484 5.49437 3.1034 6.80401 3.01179 8.19888C2.92018 9.59376 3.36512 10.9714 4.25795 12.0574C5.15078 13.1433 6.42593 13.8578 7.82929 14.0584C9.23264 14.259 10.6611 13.931 11.8301 13.1397C11.8477 13.1604 11.8547 13.1862 11.8746 13.2056L15.444 16.7241C15.527 16.81 15.6266 16.8786 15.737 16.926C15.8473 16.9734 15.9661 16.9985 16.0864 16.9999C16.2067 17.0014 16.3261 16.9791 16.4376 16.9344C16.549 16.8897 16.6503 16.8234 16.7354 16.7396C16.8205 16.6558 16.8878 16.556 16.9332 16.4461C16.9786 16.3363 17.0013 16.2186 16.9999 16.1C16.9986 15.9814 16.9731 15.8643 16.9252 15.7555C16.8772 15.6467 16.807 15.5484 16.7199 15.4665ZM4.04167 8.52488C4.04279 7.62876 4.31339 6.75307 4.81928 6.00851C5.32516 5.26394 6.04362 4.68392 6.88384 4.34176C7.72406 3.99959 8.64832 3.91064 9.53982 4.08615C10.4313 4.26166 11.25 4.69375 11.8924 5.3278C12.5349 5.96185 12.9722 6.76941 13.1491 7.6484C13.3261 8.52739 13.2347 9.43836 12.8865 10.2662C12.5383 11.094 11.949 11.8014 11.193 12.2992C10.4371 12.7969 9.54837 13.0626 8.63927 13.0625C7.41959 13.0604 6.25056 12.5815 5.38865 11.7308C4.52673 10.8801 4.04232 9.72717 4.04167 8.52488Z" fill="black" fill-opacity="0.4"/>
</svg>
