<svg width="24" height="24" viewBox="0 0 24 24" fill="none" xmlns="http://www.w3.org/2000/svg">
<path d="M8.75098 17.187C8.75098 17.3895 8.75098 17.4908 8.79867 17.565C8.84637 17.6391 8.94549 17.6843 9.14373 17.7746C9.36499 17.8754 9.64577 18.0134 10.0247 18.2018L10.3236 18.3505C10.7369 18.556 10.9435 18.6587 11.0435 18.5769C11.1435 18.495 11.0803 18.2595 10.9539 17.7883C10.6361 16.6036 10.6545 15.2628 11.2767 13.8081C11.8521 12.463 12.8437 11.3965 14.0428 10.6955C14.1462 10.635 14.1979 10.6048 14.2245 10.5586C14.251 10.5124 14.251 10.4548 14.251 10.3398V4.08297C14.251 3.90211 14.251 3.81169 14.206 3.73909C14.161 3.66649 14.0801 3.62623 13.9181 3.54571L11.1435 2.16612C10.4746 1.83347 9.92651 1.56095 9.4533 1.37837C9.16125 1.26569 9.01523 1.20935 8.88641 1.29387L8.8762 1.30088C8.75098 1.39064 8.75098 1.55963 8.75098 1.89761L8.75098 17.187Z" fill="#24A79C"/>
<path d="M22.751 11.1007C22.751 11.5535 22.751 11.7799 22.6343 11.8334C22.5175 11.8868 22.3368 11.7309 21.9752 11.419C20.7415 10.3545 19.1398 9.75317 17.5024 9.75317C17.0836 9.75317 16.6672 9.79251 16.2586 9.86888C16.0165 9.91414 15.8954 9.93677 15.8232 9.87679C15.751 9.81681 15.751 9.69895 15.751 9.46323L15.751 4.34282C15.751 4.24829 15.8278 4.17174 15.9223 4.17174L18.0539 4.17174C18.9516 4.17171 19.7018 4.17168 20.2976 4.25356C20.9284 4.34025 21.4965 4.53115 21.9513 4.99595C22.4038 5.45848 22.5876 6.03237 22.6713 6.66925C22.751 7.27498 22.751 8.03885 22.751 8.9588V11.1007Z" fill="#24A79C"/>
<path d="M7.25098 1.96054C7.25098 1.63301 7.25098 1.46925 7.13513 1.37917C7.12178 1.36878 7.10379 1.35728 7.08877 1.34951C6.95842 1.28211 6.82097 1.34559 6.54607 1.47255C6.08523 1.68539 5.55529 1.99282 4.90821 2.3682L3.61968 3.11568C3.1516 3.38719 2.75344 3.61814 2.44181 3.84317C2.10946 4.08317 1.82803 4.34867 1.62096 4.71215C1.41438 5.07477 1.32825 5.4534 1.28844 5.8637C1.25095 6.25007 1.25096 6.7164 1.25098 7.26755V15.5066C1.25096 16.2357 1.25095 16.8386 1.29737 17.3101C1.34424 17.7862 1.44773 18.2645 1.75931 18.6511C2.099 19.0725 2.57786 19.359 3.11122 19.4542C3.60433 19.5422 4.07168 19.3943 4.50248 19.1998C4.92839 19.0075 5.50017 18.6758 6.1192 18.3167C6.40232 18.1524 6.65557 18.0055 6.89189 17.8834C7.07293 17.7899 7.16345 17.7431 7.20721 17.6712C7.25098 17.5993 7.25098 17.5048 7.25098 17.3156L7.25098 1.96054Z" fill="#24A79C"/>
<path d="M17.5015 11.2516C19.556 11.2517 21.522 12.4649 22.3482 14.3961C23.1202 16.201 22.6926 17.7507 21.8423 19.0387C21.1508 20.0863 20.1383 21.0178 19.2662 21.8209C19.1129 21.962 18.9639 22.099 18.8218 22.2321C18.4637 22.5674 17.9902 22.7515 17.5015 22.7516C17.0128 22.7516 16.5384 22.5674 16.1802 22.2321L16.1783 22.2311C16.0285 22.0899 15.8709 21.9437 15.7085 21.7936C14.8452 20.9957 13.8461 20.0731 13.1617 19.0387C12.3103 17.7519 11.8818 16.2032 12.6548 14.3961C13.4811 12.4649 15.447 11.2516 17.5015 11.2516ZM17.4917 14.4996C16.3922 14.4996 15.5007 15.3952 15.5005 16.4996C15.5005 17.6042 16.3921 18.4996 17.4917 18.4996H17.5093C18.609 18.4996 19.5005 17.6042 19.5005 16.4996C19.5003 15.3952 18.6088 14.4996 17.5093 14.4996H17.4917Z" fill="#24A79C"/>
</svg>
