<svg width="20" height="20" viewBox="0 0 20 20" fill="none" xmlns="http://www.w3.org/2000/svg">
<path d="M6.11397 6.69767L9.05515 4.55814C9.42279 4.27907 9.79044 4.18605 10.1581 4.18605C11.1691 4.18605 12.0882 4.93023 12.364 5.86047C12.5478 6.4186 12.7316 6.7907 12.8235 6.97674C13.4742 7.92792 14.466 8.53379 15.5753 8.74911C16.0797 8.847 16.5 9.25369 16.5 9.76744C16.5 10.2812 16.0815 10.7045 15.5727 10.6327C13.9919 10.4097 12.5383 9.61967 11.5368 8.37209L10.8934 12.093L12.8235 13.6744L14.5378 18.4852C14.7085 18.9642 14.463 19.4915 13.9865 19.6692C13.4991 19.8509 12.9573 19.5976 12.7842 19.107L11.261 14.7907L8.13603 12.186C7.58456 11.7209 7.40074 11.0698 7.49265 10.4186L7.95221 7.72093L7.40074 8.09302L6.02386 10.0174C5.72086 10.4409 5.12801 10.5307 4.71324 10.2158C4.31572 9.91407 4.2295 9.35125 4.51847 8.94435L6.11397 6.69767ZM11.5368 3.72093C10.5257 3.72093 9.69853 2.88372 9.69853 1.86047C9.69853 0.837209 10.5257 0 11.5368 0C12.5478 0 13.375 0.837209 13.375 1.86047C13.375 2.88372 12.5478 3.72093 11.5368 3.72093ZM8.77941 16L6.43745 18.8147C6.10907 19.2094 5.5199 19.2557 5.13393 18.9171C4.75961 18.5888 4.7175 18.021 5.03929 17.641L7.21691 15.0698L7.86029 13.0233L9.51471 14.4186L8.77941 16Z" fill="#24A79C"/>
</svg>
