<svg width="20" height="20" viewBox="0 0 20 20" fill="none" xmlns="http://www.w3.org/2000/svg">
<g clip-path="url(#clip0_891_10298)">
<path d="M10.002 0.808685C13.8062 0.808685 17.1501 3.36697 17.4229 6.85849C17.425 6.85971 17.4275 6.86117 17.4297 6.8624C17.6629 6.99336 17.8371 7.16943 17.9629 7.31357C18.0323 7.39311 18.126 7.5121 18.1943 7.59872C18.6183 8.11369 19.052 8.64354 19.3066 9.00497C19.5695 9.37809 19.7688 9.73402 19.8789 10.1368C20.0413 10.7314 20.0413 11.3547 19.8789 11.9493C19.7272 12.5045 19.4219 12.9822 19.1172 13.381C18.9327 13.6224 18.7088 13.8821 18.5117 14.1104C18.404 14.2353 18.251 14.4163 18.1699 14.5147C17.9458 14.7882 17.7243 15.0582 17.4297 15.2237C17.105 15.4059 16.73 15.4851 16.3604 15.4552C16.0521 15.4301 15.6381 15.2489 15.3105 15.0997C14.6873 16.4904 13.0624 17.3585 11.3936 17.3585H9.71973C9.25771 17.3583 8.88293 16.9836 8.88281 16.5216C8.88281 16.0595 9.25764 15.6848 9.71973 15.6847H11.3936C12.9642 15.6847 13.9043 14.6951 13.9043 13.8429V13.1739C13.9043 13.0742 13.9231 12.9785 13.9551 12.8897V8.93661C13.9544 8.68201 13.9536 8.40837 14.04 8.15244C14.278 7.44825 14.9031 7.16861 15.2344 7.0206C15.3335 6.97522 15.4431 6.92574 15.5566 6.87704C15.292 4.61942 13.0276 2.66904 10.002 2.66904C6.97635 2.66913 4.71085 4.6194 4.44629 6.87704C4.56008 6.92585 4.67014 6.97511 4.76953 7.0206C5.1008 7.16861 5.72596 7.44825 5.96387 8.15244C6.05028 8.40837 6.04946 8.682 6.04883 8.93661V13.1495C6.04946 13.4041 6.05024 13.6777 5.96387 13.9337C5.72596 14.6379 5.10081 14.9175 4.76953 15.0655C4.43214 15.2199 3.97611 15.4282 3.64355 15.4552C3.27405 15.4851 2.89979 15.4058 2.5752 15.2237C2.28034 15.0582 2.05819 14.7883 1.83398 14.5147C1.75291 14.4163 1.59991 14.2353 1.49219 14.1104C1.29511 13.8821 1.07121 13.6224 0.886719 13.381C0.582026 12.9822 0.276691 12.5045 0.125 11.9493C-0.0374346 11.3547 -0.0374346 10.7314 0.125 10.1368C0.235099 9.73401 0.434433 9.37809 0.697266 9.00497C0.951915 8.64354 1.38558 8.1137 1.80957 7.59872C1.87787 7.51211 1.97159 7.39312 2.04102 7.31357C2.1669 7.16937 2.34183 6.99338 2.5752 6.8624C2.57724 6.86125 2.57901 6.85963 2.58105 6.85849C2.85374 3.36702 6.19781 0.808781 10.002 0.808685Z" fill="#24A79C" fill-opacity="0.4"/>
</g>
<defs>
<clipPath id="clip0_891_10298">
<rect width="20" height="20" fill="white"/>
</clipPath>
</defs>
</svg>
