<svg width="14" height="14" viewBox="0 0 14 14" fill="none" xmlns="http://www.w3.org/2000/svg">
<path d="M11.1261 0.304125C10.3731 -0.113924 9.45996 -0.100125 8.71959 0.340196C8.48454 0.479991 8.26752 0.688277 7.9943 0.978164C7.8781 1.10145 7.82 1.16309 7.82113 1.23913C7.82225 1.31516 7.88277 1.37568 8.00381 1.49672L11.9984 5.49127C12.122 5.61487 12.1838 5.67668 12.2612 5.67684C12.3386 5.67701 12.3999 5.61626 12.5225 5.49476C12.7855 5.23402 12.9761 5.02264 13.1058 4.79504C13.533 4.04535 13.5462 3.12361 13.1409 2.36167C12.9719 2.04407 12.6873 1.75356 12.2621 1.31947L12.1471 1.20192C11.7233 0.768779 11.4384 0.477537 11.1261 0.304125Z" fill="#24A79C"/>
<path d="M11.0829 6.88389C11.2125 6.75913 11.2772 6.69676 11.278 6.61806C11.2787 6.53937 11.2151 6.47579 11.088 6.34863L7.17665 2.43733C7.047 2.30768 6.98217 2.24285 6.90232 2.24445C6.82246 2.24605 6.76028 2.31342 6.63592 2.44815L1.80721 7.67983C1.10717 8.43805 0.678115 8.90277 0.42696 9.48085C0.176286 10.0578 0.126923 10.6926 0.0462082 11.7306L0.0460681 11.7324C0.0459233 11.7343 -0.00736215 12.416 0.000862792 12.5635C0.0101777 12.7307 0.0499864 12.9339 0.205116 13.1099C0.361646 13.2876 0.559501 13.3514 0.726082 13.3792C0.87098 13.4034 1.5236 13.4204 1.52491 13.4204C2.71063 13.4517 3.4436 13.471 4.11765 13.2077C4.79074 12.9448 5.32265 12.4323 6.18569 11.6007L11.0829 6.88389Z" fill="#24A79C"/>
</svg>
