<svg width="15" height="15" viewBox="0 0 15 15" fill="none" xmlns="http://www.w3.org/2000/svg">
<path d="M1.93557 7.37848C1.30355 6.27645 0.998387 5.37656 0.81438 4.46439C0.542237 3.1153 1.16503 1.79745 2.19674 0.95656C2.63279 0.601166 3.13264 0.72259 3.39049 1.18518L3.97261 2.22952C4.43401 3.05729 4.66472 3.47117 4.61896 3.90997C4.5732 4.34877 4.26207 4.70615 3.6398 5.42091L1.93557 7.37848ZM1.93557 7.37848C3.21483 9.60909 5.22238 11.6178 7.45558 12.8985M7.45558 12.8985C8.55762 13.5305 9.4575 13.8357 10.3697 14.0197C11.7188 14.2918 13.0366 13.669 13.8775 12.6373C14.2329 12.2013 14.1115 11.7014 13.6489 11.4436L12.6046 10.8615C11.7768 10.4001 11.3629 10.1693 10.9241 10.2151C10.4853 10.2609 10.1279 10.572 9.41315 11.1943L7.45558 12.8985Z" stroke="#919191" stroke-width="1.5" stroke-linejoin="round"/>
</svg>
