<svg width="13" height="13" viewBox="0 0 13 13" fill="none" xmlns="http://www.w3.org/2000/svg">
<circle cx="3.625" cy="3.625" r="0.9375" stroke="white" stroke-linecap="round" stroke-linejoin="round"/>
<path d="M0.5 6.4375C0.5 3.63854 0.5 2.23905 1.36953 1.36953C2.23905 0.5 3.63854 0.5 6.4375 0.5C9.23646 0.5 10.6359 0.5 11.5055 1.36953C12.375 2.23905 12.375 3.63854 12.375 6.4375C12.375 9.23647 12.375 10.6359 11.5055 11.5055C10.6359 12.375 9.23646 12.375 6.4375 12.375C3.63854 12.375 2.23905 12.375 1.36953 11.5055C0.5 10.6359 0.5 9.23647 0.5 6.4375Z" stroke="white"/>
<path d="M2.0625 12.0625C4.79529 8.79685 7.85879 4.49 12.3734 7.40147" stroke="white"/>
</svg>
