<svg width="14" height="15" viewBox="0 0 14 15" fill="none" xmlns="http://www.w3.org/2000/svg">
<path d="M9.08342 6.75002C9.08342 8.03869 8.03875 9.08335 6.75008 9.08335C5.46142 9.08335 4.41675 8.03869 4.41675 6.75002C4.41675 5.46136 5.46142 4.41669 6.75008 4.41669C8.03875 4.41669 9.08342 5.46136 9.08342 6.75002Z" stroke="#919191" stroke-width="1.5"/>
<path d="M6.75 0.75C9.99704 0.75 12.75 3.43865 12.75 6.70051C12.75 10.0143 9.95221 12.3398 7.368 13.9211C7.17967 14.0274 6.9667 14.0833 6.75 14.0833C6.5333 14.0833 6.32033 14.0274 6.132 13.9211C3.5526 12.3244 0.75 10.0258 0.75 6.70051C0.75 3.43865 3.50296 0.75 6.75 0.75Z" stroke="#919191" stroke-width="1.5"/>
</svg>
