<svg width="24" height="24" viewBox="0 0 24 24" fill="none" xmlns="http://www.w3.org/2000/svg">
<path d="M12 1.25507C17.2755 1.25507 21.75 5.61462 21.75 10.9308C21.7499 13.6441 20.5999 15.9257 18.9863 17.8088C17.379 19.6845 15.2853 21.198 13.3184 22.4016L13.3076 22.4084L13.2959 22.4142C12.9007 22.6373 12.454 22.7551 12 22.7551C11.546 22.7551 11.0993 22.6373 10.7041 22.4142L10.6914 22.4074L10.6787 22.3986C8.71881 21.1854 6.62467 19.6771 5.0166 17.8068C3.40181 15.9286 2.25011 13.653 2.25 10.9308C2.25 5.61462 6.72451 1.25507 12 1.25507ZM12 7.00604C9.79111 7.00625 8.00011 8.79712 8 11.006C8 13.2151 9.79104 15.0058 12 15.006C14.2091 15.006 16 13.2152 16 11.006C15.9999 8.79699 14.2091 7.00604 12 7.00604Z" fill="#24A79C"/>
</svg>
