<svg width="14" height="14" viewBox="0 0 14 14" fill="none" xmlns="http://www.w3.org/2000/svg">
<path d="M7 0C9.17439 -9.50198e-08 10.2615 0.000239968 11.1191 0.355469C12.2626 0.829106 13.1709 1.73743 13.6445 2.88086C13.9998 3.73846 14 4.82561 14 7C14 9.17439 13.9998 10.2615 13.6445 11.1191C13.1709 12.2626 12.2626 13.1709 11.1191 13.6445C10.2615 13.9998 9.17439 14 7 14C4.82561 14 3.73846 13.9998 2.88086 13.6445C1.73743 13.1709 0.829106 12.2626 0.355469 11.1191C0.000239879 10.2615 9.50717e-08 9.17439 0 7C-9.50198e-08 4.82561 0.000239968 3.73846 0.355469 2.88086C0.829106 1.73743 1.73743 0.829106 2.88086 0.355469C3.73846 0.000239879 4.82561 9.50717e-08 7 0ZM10.8389 8.71777C10.2531 8.13205 9.30358 8.13218 8.71777 8.71777C8.13199 9.30356 8.13199 10.2531 8.71777 10.8389C9.30357 11.4246 10.2531 11.4246 10.8389 10.8389C11.4244 10.2531 11.4245 9.3035 10.8389 8.71777ZM8.01074 5.88965C7.42495 5.30392 6.47444 5.30388 5.88867 5.88965C5.30353 6.4754 5.3033 7.42513 5.88867 8.01074C6.47439 8.59646 7.42494 8.59632 8.01074 8.01074C8.59629 7.42505 8.59617 6.47542 8.01074 5.88965ZM5.18164 3.06055C4.59587 2.47516 3.64622 2.47501 3.06055 3.06055C2.47489 3.64634 2.4748 4.59687 3.06055 5.18262C3.64619 5.76806 4.59588 5.76786 5.18164 5.18262C5.76741 4.59685 5.76737 3.64634 5.18164 3.06055Z" fill="#666666"/>
</svg>
