<svg width="20" height="20" viewBox="0 0 20 20" fill="none" xmlns="http://www.w3.org/2000/svg">
<path d="M14.4824 0.00167847C15.585 0.0184665 16.7531 0.0460932 17.7402 0.604218C18.8407 1.19183 19.6322 2.30659 19.8506 3.53195C19.9849 4.26209 20.0021 5.01106 20 5.75168C19.9958 8.80491 20.0058 11.8585 19.9932 14.9138C19.9826 16.1161 19.7893 17.3939 18.9912 18.3445C18.1321 19.4606 16.6997 19.9599 15.3262 19.9704C12.726 20.0271 10.1237 19.9811 7.52148 19.9958C6.25703 19.9769 4.98555 20.0591 3.72949 19.8786C2.40219 19.6959 1.15881 18.8647 0.564453 17.654C-0.0068012 16.5944 0.00825267 15.3521 0.00195312 14.1833C0.0103548 11.0923 -0.0125098 8.00074 0.0126953 4.91183C0.0127787 3.57111 0.378071 2.14266 1.40918 1.21945C2.38582 0.254228 3.80961 0.00449397 5.13281 0.00656128C8.24774 -0.00602937 11.3654 0.00377691 14.4824 0.00167847ZM17.6211 14.5339C16.9875 14.5363 8.73543 14.5339 8.10156 14.528C7.95131 14.534 7.72854 14.5366 7.61719 14.6491C7.57514 14.6917 7.56159 14.7473 7.56738 14.8044C7.581 14.9373 7.67971 15.0582 7.75586 15.1657C8.04284 15.5712 8.1097 16.4401 7.77441 16.8474C7.4716 17.215 6.8742 17.468 6.94531 18.0144C6.98121 18.2893 7.17126 18.543 7.39844 18.7087C7.53062 18.8051 7.68346 18.8785 7.84668 18.9128C8.12064 18.9704 8.41981 18.9398 8.69922 18.9402L14.0869 18.945C15.2097 18.9065 15.9513 18.7975 16.5693 18.49C17.4107 18.0713 18.0948 17.4033 18.5234 16.5818C18.7603 16.1278 18.8818 15.6056 18.9443 14.9079C18.9526 14.8153 18.9422 14.7149 18.8721 14.6521C18.788 14.5769 18.6674 14.5582 18.5566 14.5456C18.2718 14.5132 17.9135 14.5339 17.6211 14.5339ZM4.49707 14.5329C3.5478 14.5329 2.59317 14.5519 1.64453 14.53C1.4802 14.5363 1.27412 14.5383 1.15137 14.6599C1.03015 14.7803 1.04687 14.9726 1.06641 15.1404C1.13443 15.7241 1.25406 16.1796 1.46387 16.5818C1.7866 17.2003 2.25387 17.7319 2.82422 18.1355C2.84033 18.1469 2.84861 18.1529 2.87305 18.1677C2.97986 18.2321 3.17234 18.284 3.29785 18.282C3.32649 18.2815 3.33765 18.28 3.35938 18.278C3.43879 18.271 3.50284 18.2563 3.55664 18.196C3.63633 18.1066 3.64515 17.9789 3.66211 17.8679C3.6799 17.7516 3.70138 17.6351 3.7666 17.5329C3.97244 17.2109 4.47944 17.0288 4.83887 16.9109C5.50748 16.703 6.51856 16.4919 6.86035 15.8454C6.96849 15.6407 6.98256 15.4296 6.9043 15.2136C6.81695 14.9728 6.64522 14.7932 6.40332 14.6843C6.22894 14.6058 6.03366 14.571 5.84277 14.5525C5.41067 14.5106 4.93367 14.533 4.49707 14.5329ZM16.1484 8.43332C15.9622 8.42447 15.8157 8.47383 15.6641 8.58664C15.4459 8.74903 15.2841 8.99302 15.123 9.21066C14.8078 9.63669 14.1838 10.5711 13.8105 10.8874C13.1918 11.4118 12.5012 11.0768 11.9268 10.6814C11.6341 10.4798 11.2988 10.1759 10.9316 10.1501C10.3532 10.1095 9.86497 10.9554 9.45996 11.3122C8.75653 11.9316 8.39091 11.4388 7.66309 11.3923C7.20668 11.3632 6.80863 11.6914 6.4209 11.8923C6.16963 12.0225 5.90204 12.1316 5.62402 12.1833C5.0596 12.2883 4.5083 12.1609 3.94336 12.1804C3.39509 12.1993 2.85361 12.3797 2.32617 12.5202C2.04743 12.5945 1.74906 12.6535 1.48242 12.7654C1.3839 12.8067 1.28692 12.87 1.20801 12.9431C1.11716 13.0273 1.05422 13.1274 1.05176 13.2556C1.05012 13.3426 1.08305 13.4163 1.14551 13.4753C1.45948 13.7718 2.15147 13.6869 2.53906 13.6775L12.0986 13.6872C13.4027 13.6899 14.7068 13.6828 16.0107 13.6677C16.7179 13.662 17.4348 13.6786 18.1406 13.6394C18.2649 13.6324 18.431 13.6202 18.5439 13.5652C18.7118 13.4832 18.8224 13.272 18.8721 13.0984C18.9822 12.713 18.9561 11.6902 18.8818 11.2849C18.8504 11.1133 18.7947 10.9336 18.709 10.782C18.5051 10.4221 17.0029 8.9486 16.6172 8.66574C16.4672 8.55574 16.3284 8.47936 16.1484 8.43332ZM14.293 2.54269C14.0917 2.52996 13.906 2.58236 13.7334 2.68234C13.0383 3.08551 11.9573 4.58292 11.4961 5.25754C11.1963 5.69621 10.6804 6.59592 10.2344 6.83664C9.71823 7.11509 9.25627 6.60996 8.77832 6.47726C8.57581 6.42111 8.37195 6.43076 8.17871 6.51437C7.65773 6.74001 6.21616 8.18861 5.77344 8.65109C5.50322 8.93341 5.21176 9.31728 4.8623 9.50168C4.38981 9.75095 3.84961 9.48211 3.34863 9.6091C2.9007 9.7227 2.56716 10.0632 2.16309 10.2663C1.92145 10.3878 1.65083 10.4493 1.41406 10.5818C1.26536 10.665 1.10194 10.7943 1.06055 10.9675C1.03386 11.0792 1.06789 11.1889 1.12598 11.2849C1.21784 11.4366 1.34681 11.5309 1.52148 11.5691C2.12247 11.7003 3.02664 11.2665 3.66113 11.1999C4.3281 11.13 5.01521 11.3156 5.66992 11.1472C6.12601 11.0298 6.51018 10.7382 6.90137 10.49C7.81592 9.99187 8.2368 10.6664 8.90918 10.4216C9.41152 10.2387 9.78909 9.42606 10.3633 9.12473C11.2476 8.66107 12.0316 9.80006 12.7568 10.0007C12.9807 10.0626 13.2074 10.0147 13.3984 9.88742C13.6225 9.7381 13.7877 9.49997 13.9492 9.28976C14.319 8.80868 14.971 7.82894 15.459 7.55246C16.3561 7.04453 17.2316 7.98114 17.8242 8.5466C18.0221 8.73532 18.2806 9.01652 18.5547 9.08273C18.6307 9.10105 18.7015 9.09792 18.7686 9.05441C18.8565 8.99732 18.896 8.86701 18.915 8.77121C19.0009 8.33935 18.8985 7.27004 18.7695 6.85422C18.7144 6.67678 18.6255 6.50861 18.5225 6.35422C18.3196 6.05034 18.0612 5.79066 17.8057 5.53098C17.5593 5.28059 17.3138 5.02824 17.0537 4.79172C16.672 4.4445 16.2718 4.1162 15.8926 3.76633C15.5495 3.44983 15.2402 3.07185 14.8604 2.79855C14.6834 2.67122 14.5086 2.58516 14.293 2.54269ZM3.68164 1.90695C2.81836 1.79265 2.02513 2.39838 1.90918 3.26144C1.79326 4.12443 2.39804 4.91815 3.26074 5.03586C4.12577 5.1537 4.92262 4.54751 5.03906 3.68234C5.15528 2.81704 4.54707 2.02169 3.68164 1.90695Z" fill="#24A79C" fill-opacity="0.4"/>
</svg>
