<svg width="20" height="17" viewBox="0 0 20 17" fill="none" xmlns="http://www.w3.org/2000/svg">
<path d="M9.99902 0C13.8032 0 17.1472 2.55828 17.4199 6.0498C17.4221 6.05102 17.4246 6.05249 17.4268 6.05371C17.66 6.18467 17.8341 6.36075 17.96 6.50488C18.0294 6.58442 18.1231 6.70341 18.1914 6.79004C18.6154 7.305 19.0491 7.83485 19.3037 8.19629C19.5665 8.5694 19.7659 8.92533 19.876 9.32812C20.0384 9.92271 20.0384 10.546 19.876 11.1406C19.7243 11.6958 19.419 12.1735 19.1143 12.5723C18.9298 12.8137 18.7059 13.0734 18.5088 13.3018C18.4011 13.4266 18.2481 13.6076 18.167 13.7061C17.9429 13.9795 17.7214 14.2495 17.4268 14.415C17.1021 14.5973 16.727 14.6764 16.3574 14.6465C16.0492 14.6214 15.6352 14.4402 15.3076 14.291C14.6844 15.6817 13.0595 16.5498 11.3906 16.5498H9.7168C9.25478 16.5496 8.88 16.1749 8.87988 15.7129C8.87988 15.2508 9.25471 14.8761 9.7168 14.876H11.3906C12.9612 14.876 13.9014 13.8865 13.9014 13.0342V12.3652C13.9014 12.2655 13.9201 12.1698 13.9521 12.0811V8.12793C13.9515 7.87332 13.9507 7.59968 14.0371 7.34375C14.275 6.63956 14.9002 6.35992 15.2314 6.21191C15.3306 6.16654 15.4402 6.11705 15.5537 6.06836C15.2891 3.81073 13.0247 1.86035 9.99902 1.86035C6.97342 1.86044 4.70792 3.81072 4.44336 6.06836C4.55715 6.11716 4.66721 6.16643 4.7666 6.21191C5.09788 6.35992 5.72303 6.63956 5.96094 7.34375C6.04735 7.59969 6.04653 7.87331 6.0459 8.12793V12.3408C6.04653 12.5954 6.04731 12.869 5.96094 13.125C5.72303 13.8292 5.09788 14.1088 4.7666 14.2568C4.42921 14.4112 3.97318 14.6195 3.64062 14.6465C3.27112 14.6764 2.89686 14.5971 2.57227 14.415C2.27741 14.2495 2.05527 13.9796 1.83105 13.7061C1.74998 13.6076 1.59698 13.4266 1.48926 13.3018C1.29218 13.0734 1.06828 12.8137 0.883789 12.5723C0.579097 12.1735 0.273761 11.6958 0.12207 11.1406C-0.0403643 10.546 -0.0403643 9.92271 0.12207 9.32812C0.232169 8.92532 0.431503 8.56941 0.694336 8.19629C0.948985 7.83485 1.38265 7.30502 1.80664 6.79004C1.87494 6.70342 1.96866 6.58443 2.03809 6.50488C2.16397 6.36068 2.3389 6.18469 2.57227 6.05371C2.57431 6.05257 2.57608 6.05094 2.57812 6.0498C2.85082 2.55833 6.19488 9.608e-05 9.99902 0Z" fill="#24A79C" fill-opacity="0.4"/>
</svg>
