<svg width="13" height="14" viewBox="0 0 13 14" fill="none" xmlns="http://www.w3.org/2000/svg">
<path d="M10.8125 2.6875L10.4252 8.95318C10.3262 10.554 10.2767 11.3545 9.87547 11.9299C9.67708 12.2144 9.42166 12.4546 9.12544 12.635C8.52632 13 7.72437 13 6.12046 13C4.51445 13 3.71144 13 3.11191 12.6343C2.8155 12.4535 2.56 12.213 2.36168 11.928C1.96055 11.3516 1.91216 10.5501 1.81538 8.94697L1.4375 2.6875" stroke="white" stroke-linecap="round"/>
<path d="M0.5 2.6875H11.75M8.65983 2.6875L8.23316 1.80733C7.94973 1.22266 7.80802 0.930326 7.56357 0.748004C7.50935 0.707562 7.45193 0.671589 7.39189 0.640438C7.1212 0.5 6.79632 0.5 6.14658 0.5C5.48052 0.5 5.14749 0.5 4.8723 0.646325C4.81131 0.678755 4.75311 0.716185 4.69831 0.75823C4.45102 0.947938 4.31289 1.25097 4.03663 1.85704L3.65808 2.6875" stroke="white" stroke-linecap="round"/>
<path d="M4.5625 9.5625L4.5625 5.8125" stroke="white" stroke-linecap="round"/>
<path d="M7.6875 9.5625L7.6875 5.8125" stroke="white" stroke-linecap="round"/>
</svg>
