<svg width="17" height="18" viewBox="0 0 17 18" fill="none" xmlns="http://www.w3.org/2000/svg">
<path d="M12.9636 11.3227C13.0605 11.3804 13.1803 11.4479 13.3158 11.5244C13.9098 11.8595 14.8077 12.3661 15.4229 12.9682C15.8076 13.3448 16.1731 13.841 16.2396 14.449C16.3103 15.0955 16.0282 15.7022 15.4624 16.2413C14.4862 17.1714 13.3147 17.9167 11.7994 17.9167H4.45087C2.93561 17.9167 1.76413 17.1714 0.78792 16.2413C0.222071 15.7022 -0.0599819 15.0955 0.0106903 14.449C0.077145 13.841 0.44269 13.3448 0.827413 12.9682C1.44255 12.3661 2.34048 11.8595 2.93449 11.5244C3.07003 11.4479 3.18978 11.3804 3.2867 11.3227C6.24841 9.55913 10.0019 9.55913 12.9636 11.3227Z" fill="#24A79C" fill-opacity="0.4"/>
<path d="M3.75015 4.37502C3.75015 1.95877 5.7089 1.52588e-05 8.12515 1.52588e-05C10.5414 1.52588e-05 12.5001 1.95877 12.5001 4.37502C12.5001 6.79126 10.5414 8.75002 8.12515 8.75002C5.7089 8.75002 3.75015 6.79126 3.75015 4.37502Z" fill="#24A79C" fill-opacity="0.4"/>
</svg>
