<svg width="19" height="14" viewBox="0 0 19 14" fill="none" xmlns="http://www.w3.org/2000/svg">
<path d="M17.0366 5.78749C17.29 6.14275 17.4167 6.32039 17.4167 6.58333C17.4167 6.84628 17.29 7.02391 17.0366 7.37918C15.8983 8.97547 12.991 12.4167 9.08333 12.4167C5.17565 12.4167 2.26841 8.97547 1.13003 7.37918C0.876678 7.02391 0.75 6.84628 0.75 6.58333C0.75 6.32039 0.876678 6.14276 1.13003 5.78749C2.26841 4.1912 5.17565 0.75 9.08333 0.75C12.991 0.75 15.8982 4.1912 17.0366 5.78749Z" stroke="#999999" stroke-width="1.5"/>
<path d="M11.584 6.58337C11.584 5.20266 10.4647 4.08337 9.08398 4.08337C7.70327 4.08337 6.58398 5.20266 6.58398 6.58337C6.58398 7.96409 7.70327 9.08337 9.08398 9.08337C10.4647 9.08337 11.584 7.96409 11.584 6.58337Z" stroke="#999999" stroke-width="1.5"/>
</svg>
